<svg xmlns="http://www.w3.org/2000/svg" xmlns:xlink="http://www.w3.org/1999/xlink" xmlns:lucid="lucid" width="920" height="696"><g transform="translate(-189 -145)" lucid:page-tab-id="0_0"><path d="M0 0h1760v1360H0z" fill="#fff"/><path d="M453.15 117.16c0-4.42 3.58-8 8-8h837.7c4.42 0 8 3.58 8 8V120c0 4.42-3.58 8-8 8h-837.7c-4.42 0-8-3.58-8-8z" stroke="#000" stroke-opacity="0" stroke-width="2" fill="#fff" fill-opacity="0"/><use xlink:href="#a" transform="matrix(1,0,0,1,457.1465527853434,113.15522395684805) translate(328.94482510288066 14.917037037037037)"/><use xlink:href="#b" transform="matrix(1,0,0,1,457.1465527853434,113.15522395684805) translate(354.09873456790126 14.917037037037037)"/><use xlink:href="#c" transform="matrix(1,0,0,1,457.1465527853434,113.15522395684805) translate(393.14677983539093 14.917037037037037)"/><use xlink:href="#d" transform="matrix(1,0,0,1,457.1465527853434,113.15522395684805) translate(405.59626543209873 14.917037037037037)"/><use xlink:href="#e" transform="matrix(1,0,0,1,457.1465527853434,113.15522395684805) translate(464.1895781893004 14.917037037037037)"/><use xlink:href="#f" transform="matrix(1,0,0,1,457.1465527853434,113.15522395684805) translate(489.6834053497942 14.917037037037037)"/><path d="M280 248c0-4.42 3.58-8 8-8h264c4.42 0 8 3.58 8 8v184c0 4.42-3.58 8-8 8H288c-4.42 0-8-3.58-8-8z" fill="#fff"/><path d="M280 312h280v32H280zM280 376h280v32H280z" fill="#e6e6e6"/><path d="M280 248c0-4.42 3.58-8 8-8h264c4.42 0 8 3.58 8 8v184c0 4.42-3.58 8-8 8H288c-4.42 0-8-3.58-8-8zM280 280h280M340 280v160M450 280v160" stroke="#333" fill="none"/><use xlink:href="#g" transform="matrix(1,0,0,1,290,240) translate(111.05 23.6)"/><use xlink:href="#h" transform="matrix(1,0,0,1,285,282.5) translate(0 17.1)"/><use xlink:href="#i" transform="matrix(1,0,0,1,345,282.5) translate(0 17.1)"/><use xlink:href="#j" transform="matrix(1,0,0,1,455,282.5) translate(0 17.1)"/><use xlink:href="#k" transform="matrix(1,0,0,1,345,314.5) translate(0 17.1)"/><use xlink:href="#l" transform="matrix(1,0,0,1,455,314.5) translate(0 17.1)"/><use xlink:href="#m" transform="matrix(1,0,0,1,345,346.5) translate(0 17.1)"/><use xlink:href="#l" transform="matrix(1,0,0,1,455,346.5) translate(0 17.1)"/><use xlink:href="#n" transform="matrix(1,0,0,1,345,378.5) translate(0 17.1)"/><use xlink:href="#l" transform="matrix(1,0,0,1,455,378.5) translate(0 17.1)"/><use xlink:href="#o" transform="matrix(1,0,0,1,345,410.5) translate(0 17.1)"/><use xlink:href="#p" transform="matrix(1,0,0,1,455,410.5) translate(0 17.1)"/><path d="M700 248c0-4.42 3.58-8 8-8h244c4.42 0 8 3.58 8 8v152c0 4.42-3.58 8-8 8H708c-4.42 0-8-3.58-8-8z" fill="#fff"/><path d="M700 312h260v32H700zM700 376h260v32H700z" fill="#e6e6e6"/><path d="M700 248c0-4.42 3.58-8 8-8h244c4.42 0 8 3.58 8 8v152c0 4.42-3.58 8-8 8H708c-4.42 0-8-3.58-8-8zM700 280h260M760 280v128M860 280v128" stroke="#333" fill="none"/><use xlink:href="#q" transform="matrix(1,0,0,1,710,240) translate(102 23.6)"/><use xlink:href="#h" transform="matrix(1,0,0,1,705,282.5) translate(0 17.1)"/><use xlink:href="#i" transform="matrix(1,0,0,1,765,282.5) translate(0 17.1)"/><use xlink:href="#j" transform="matrix(1,0,0,1,865,282.5) translate(0 17.1)"/><use xlink:href="#r" transform="matrix(1,0,0,1,765,314.5) translate(0 17.1)"/><use xlink:href="#l" transform="matrix(1,0,0,1,865,314.5) translate(0 17.1)"/><use xlink:href="#s" transform="matrix(1,0,0,1,765,346.5) translate(0 17.1)"/><use xlink:href="#t" transform="matrix(1,0,0,1,865,346.5) translate(0 17.1)"/><use xlink:href="#u" transform="matrix(1,0,0,1,705,378.5) translate(13.524999999999999 17.1)"/><use xlink:href="#v" transform="matrix(1,0,0,1,765,378.5) translate(0 17.1)"/><use xlink:href="#w" transform="matrix(1,0,0,1,865,378.5) translate(0 17.1)"/><path d="M580.5 296H638c6.63 0 12 5.37 12 12v74c0 5.52 4.48 10 10 10" stroke="#333" fill="none"/><path d="M580.5 306v-20M560.5 296h20M699.28 402l-20-10 20-10M699.28 392h-20M679.28 392c0 5.52-4.48 10-10 10-5.53 0-10-4.48-10-10s4.47-10 10-10c5.52 0 10 4.48 10 10" stroke="#333" fill="#fff"/><path d="M700 448c0-4.42 3.58-8 8-8h244c4.42 0 8 3.58 8 8v152c0 4.42-3.58 8-8 8H708c-4.42 0-8-3.58-8-8z" fill="#fff"/><path d="M700 512h260v32H700zM700 576h260v32H700z" fill="#e6e6e6"/><path d="M700 448c0-4.42 3.58-8 8-8h244c4.42 0 8 3.58 8 8v152c0 4.42-3.58 8-8 8H708c-4.42 0-8-3.58-8-8zM700 480h260M760 480v128M860 480v128" stroke="#333" fill="none"/><use xlink:href="#x" transform="matrix(1,0,0,1,710,440) translate(81.07499999999999 23.6)"/><use xlink:href="#h" transform="matrix(1,0,0,1,705,482.5) translate(0 17.1)"/><use xlink:href="#i" transform="matrix(1,0,0,1,765,482.5) translate(0 17.1)"/><use xlink:href="#j" transform="matrix(1,0,0,1,865,482.5) translate(0 17.1)"/><use xlink:href="#y" transform="matrix(1,0,0,1,705,514.5) translate(0 17.1)"/><use xlink:href="#z" transform="matrix(1,0,0,1,765,514.5) translate(0 17.1)"/><use xlink:href="#j" transform="matrix(1,0,0,1,865,514.5) translate(0 17.1)"/><use xlink:href="#u" transform="matrix(1,0,0,1,705,546.5) translate(0 17.1)"/><use xlink:href="#A" transform="matrix(1,0,0,1,765,546.5) translate(0 17.1)"/><use xlink:href="#w" transform="matrix(1,0,0,1,865,546.5) translate(0 17.1)"/><use xlink:href="#t" transform="matrix(1,0,0,1,765,578.5) translate(0 17.1)"/><use xlink:href="#t" transform="matrix(1,0,0,1,865,578.5) translate(0 17.1)"/><path d="M980.5 296H998c6.63 0 12 5.37 12 12v210c0 5.52-4.48 10-10 10" stroke="#333" fill="none"/><path d="M980.5 306v-20M960.5 296h20M960.72 518l20 10-20 10M960.72 528h20M1000.72 528c0 5.52-4.47 10-10 10-5.52 0-10-4.48-10-10s4.48-10 10-10c5.53 0 10 4.48 10 10" stroke="#333" fill="#fff"/><path d="M580.5 296H618c6.63 0 12 5.37 12 12v240c0 6.63 5.37 12 12 12h18" stroke="#333" fill="none"/><path d="M580.5 306v-20M560.5 296h20M699.28 570l-20-10 20-10M699.28 560h-20M679.28 560c0 5.52-4.48 10-10 10-5.53 0-10-4.48-10-10s4.47-10 10-10c5.52 0 10 4.48 10 10" stroke="#333" fill="#fff"/><path d="M660 648c0-4.42 3.58-8 8-8h244c4.42 0 8 3.58 8 8v120c0 4.42-3.58 8-8 8H668c-4.42 0-8-3.58-8-8z" fill="#fff"/><path d="M660 712h260v32H660z" fill="#e6e6e6"/><path d="M660 648c0-4.42 3.58-8 8-8h244c4.42 0 8 3.58 8 8v120c0 4.42-3.58 8-8 8H668c-4.42 0-8-3.58-8-8zM660 680h260M720 680v96M820 680v96" stroke="#333" fill="none"/><use xlink:href="#B" transform="matrix(1,0,0,1,670,640) translate(103.525 23.6)"/><use xlink:href="#h" transform="matrix(1,0,0,1,665,682.5) translate(0 17.1)"/><use xlink:href="#i" transform="matrix(1,0,0,1,725,682.5) translate(0 17.1)"/><use xlink:href="#j" transform="matrix(1,0,0,1,825,682.5) translate(0 17.1)"/><use xlink:href="#y" transform="matrix(1,0,0,1,665,714.5) translate(0 17.1)"/><use xlink:href="#z" transform="matrix(1,0,0,1,725,714.5) translate(0 17.1)"/><use xlink:href="#j" transform="matrix(1,0,0,1,825,714.5) translate(0 17.1)"/><use xlink:href="#y" transform="matrix(1,0,0,1,665,746.5) translate(0 17.1)"/><use xlink:href="#C" transform="matrix(1,0,0,1,725,746.5) translate(0 17.1)"/><use xlink:href="#j" transform="matrix(1,0,0,1,825,746.5) translate(0 17.1)"/><path d="M580.5 296h7.5c6.63 0 12 5.37 12 12v440.2c0 6.63 5.37 12 12 12h8" stroke="#333" fill="none"/><path d="M580.5 306v-20M560.5 296h20M659.28 770.2l-20-10 20-10M659.28 760.2h-20M639.28 760.2c0 5.52-4.48 10-10 10-5.53 0-10-4.48-10-10s4.47-10 10-10c5.52 0 10 4.48 10 10" stroke="#333" fill="#fff"/><path d="M980.5 295.9h47.5c6.63 0 12 5.36 12 12v408.84c0 6.63-5.37 12-12 12h-68" stroke="#333" fill="none"/><path d="M980.5 305.9v-20M960.5 295.9h20M920.72 718.74l20 10-20 10M920.72 728.74h20M960.72 728.74c0 5.52-4.47 10-10 10-5.52 0-10-4.48-10-10s4.48-10 10-10c5.53 0 10 4.48 10 10" stroke="#333" fill="#fff"/><path d="M280 588c0-4.42 3.58-8 8-8h264c4.42 0 8 3.58 8 8v152c0 4.42-3.58 8-8 8H288c-4.42 0-8-3.58-8-8z" fill="#fff"/><path d="M280 652h280v32H280zM280 716h280v32H280z" fill="#e6e6e6"/><path d="M280 588c0-4.42 3.58-8 8-8h264c4.42 0 8 3.58 8 8v152c0 4.42-3.58 8-8 8H288c-4.42 0-8-3.58-8-8zM280 620h280M340 620v128M450 620v128" stroke="#333" fill="none"/><use xlink:href="#D" transform="matrix(1,0,0,1,290,580) translate(88.1 23.6)"/><use xlink:href="#h" transform="matrix(1,0,0,1,285,622.5) translate(0 17.1)"/><use xlink:href="#i" transform="matrix(1,0,0,1,345,622.5) translate(0 17.1)"/><use xlink:href="#j" transform="matrix(1,0,0,1,455,622.5) translate(0 17.1)"/><use xlink:href="#E" transform="matrix(1,0,0,1,345,654.5) translate(0 17.1)"/><use xlink:href="#j" transform="matrix(1,0,0,1,455,654.5) translate(0 17.1)"/><use xlink:href="#F" transform="matrix(1,0,0,1,345,686.5) translate(0 17.1)"/><use xlink:href="#j" transform="matrix(1,0,0,1,455,686.5) translate(0 17.1)"/><use xlink:href="#G" transform="matrix(1,0,0,1,345,718.5) translate(0 17.1)"/><use xlink:href="#p" transform="matrix(1,0,0,1,455,718.5) translate(0 17.1)"/><path d="M420 480v80.1" stroke="#333" fill="none"/><path d="M430 440.72l-10 20-10-20M420 440.72v20M430 470.72c0 5.53-4.48 10-10 10s-10-4.47-10-10c0-5.52 4.48-10 10-10s10 4.48 10 10M410 579.28l10-20 10 20M420 579.28v-20" stroke="#333" fill="#fff"/><defs><path fill="#a9afb8" d="M212-179c-10-28-35-45-73-45-59 0-87 40-87 99 0 60 29 101 89 101 43 0 62-24 78-52l27 14C228-24 195 4 139 4 59 4 22-46 18-125c-6-104 99-153 187-111 19 9 31 26 39 46" id="H"/><path fill="#a9afb8" d="M137-103V0h-34v-103L8-248h37l75 118 75-118h37" id="I"/><g id="a"><use transform="matrix(0.04248971193415638,0,0,0.04248971193415638,0,0)" xlink:href="#H"/><use transform="matrix(0.04248971193415638,0,0,0.04248971193415638,11.004835390946502,0)" xlink:href="#I"/></g><path fill="#a9afb8" d="M194 0L95-120 63-95V0H30v-248h33v124l119-124h40L117-140 236 0h-42" id="J"/><path fill="#a9afb8" d="M141-36C126-15 110 5 73 4 37 3 15-17 15-53c-1-64 63-63 125-63 3-35-9-54-41-54-24 1-41 7-42 31l-33-3c5-37 33-52 76-52 45 0 72 20 72 64v82c-1 20 7 32 28 27v20c-31 9-61-2-59-35zM48-53c0 20 12 33 32 33 41-3 63-29 60-74-43 2-92-5-92 41" id="K"/><path fill="#a9afb8" d="M24 0v-261h32V0H24" id="L"/><path fill="#a9afb8" d="M84 4C-5 8 30-112 23-190h32v120c0 31 7 50 39 49 72-2 45-101 50-169h31l1 190h-30c-1-10 1-25-2-33-11 22-28 36-60 37" id="M"/><g id="b"><use transform="matrix(0.04248971193415638,0,0,0.04248971193415638,0,0)" xlink:href="#J"/><use transform="matrix(0.04248971193415638,0,0,0.04248971193415638,10.19753086419753,0)" xlink:href="#K"/><use transform="matrix(0.04248971193415638,0,0,0.04248971193415638,18.695473251028805,0)" xlink:href="#L"/><use transform="matrix(0.04248971193415638,0,0,0.04248971193415638,22.05216049382716,0)" xlink:href="#M"/></g><path fill="#a9afb8" d="M32 76v-337h29V76H32" id="N"/><use transform="matrix(0.04248971193415638,0,0,0.04248971193415638,0,0)" xlink:href="#N" id="c"/><path fill="#a9afb8" d="M153-248C145-148 188 4 80 4 36 3 13-21 6-62l32-5c4 25 16 42 43 43 27 0 39-20 39-49v-147H72v-28h81" id="O"/><path fill="#a9afb8" d="M117-194c89-4 53 116 60 194h-32v-121c0-31-8-49-39-48C34-167 62-67 57 0H25l-1-190h30c1 10-1 24 2 32 11-22 29-35 61-36" id="P"/><path fill="#a9afb8" d="M114-163C36-179 61-72 57 0H25l-1-190h30c1 12-1 29 2 39 6-27 23-49 58-41v29" id="Q"/><path fill="#a9afb8" d="M179-190L93 31C79 59 56 82 12 73V49c39 6 53-20 64-50L1-190h34L92-34l54-156h33" id="R"/><g id="d"><use transform="matrix(0.04248971193415638,0,0,0.04248971193415638,0,0)" xlink:href="#O"/><use transform="matrix(0.04248971193415638,0,0,0.04248971193415638,7.648148148148148,0)" xlink:href="#K"/><use transform="matrix(0.04248971193415638,0,0,0.04248971193415638,16.14609053497942,0)" xlink:href="#P"/><use transform="matrix(0.04248971193415638,0,0,0.04248971193415638,24.644032921810698,0)" xlink:href="#M"/><use transform="matrix(0.04248971193415638,0,0,0.04248971193415638,33.141975308641975,0)" xlink:href="#K"/><use transform="matrix(0.04248971193415638,0,0,0.04248971193415638,41.63991769547325,0)" xlink:href="#Q"/><use transform="matrix(0.04248971193415638,0,0,0.04248971193415638,46.69619341563786,0)" xlink:href="#R"/></g><path fill="#a9afb8" d="M27 0v-27h64v-190l-56 39v-29l58-41h29v221h61V0H27" id="S"/><path fill="#a9afb8" d="M101-251c82-7 93 87 43 132L82-64C71-53 59-42 53-27h129V0H18c2-99 128-94 128-182 0-28-16-43-45-43s-46 15-49 41l-32-3c6-41 34-60 81-64" id="T"/><path fill="#a9afb8" d="M68-38c1 34 0 65-14 84H32c9-13 17-26 17-46H33v-38h35" id="U"/><g id="e"><use transform="matrix(0.04248971193415638,0,0,0.04248971193415638,0,0)" xlink:href="#S"/><use transform="matrix(0.04248971193415638,0,0,0.04248971193415638,8.497942386831275,0)" xlink:href="#T"/><use transform="matrix(0.04248971193415638,0,0,0.04248971193415638,16.99588477366255,0)" xlink:href="#U"/></g><path fill="#a9afb8" d="M101-251c68 0 85 55 85 127S166 4 100 4C33 4 14-52 14-124c0-73 17-127 87-127zm-1 229c47 0 54-49 54-102s-4-102-53-102c-51 0-55 48-55 102 0 53 5 102 54 102" id="V"/><g id="f"><use transform="matrix(0.04248971193415638,0,0,0.04248971193415638,0,0)" xlink:href="#T"/><use transform="matrix(0.04248971193415638,0,0,0.04248971193415638,8.497942386831275,0)" xlink:href="#V"/><use transform="matrix(0.04248971193415638,0,0,0.04248971193415638,16.99588477366255,0)" xlink:href="#T"/><use transform="matrix(0.04248971193415638,0,0,0.04248971193415638,25.493827160493822,0)" xlink:href="#S"/></g><path fill="#333" d="M232-93c-1 65-40 97-104 97C67 4 28-28 28-90v-158h33c8 89-33 224 67 224 102 0 64-133 71-224h33v155" id="W"/><path fill="#333" d="M135-143c-3-34-86-38-87 0 15 53 115 12 119 90S17 21 10-45l28-5c4 36 97 45 98 0-10-56-113-15-118-90-4-57 82-63 122-42 12 7 21 19 24 35" id="X"/><path fill="#333" d="M100-194c63 0 86 42 84 106H49c0 40 14 67 53 68 26 1 43-12 49-29l28 8c-11 28-37 45-77 45C44 4 14-33 15-96c1-61 26-98 85-98zm52 81c6-60-76-77-97-28-3 7-6 17-6 28h103" id="Y"/><path fill="#333" d="M114-163C36-179 61-72 57 0H25l-1-190h30c1 12-1 29 2 39 6-27 23-49 58-41v29" id="Z"/><g id="g"><use transform="matrix(0.05,0,0,0.05,0,0)" xlink:href="#W"/><use transform="matrix(0.05,0,0,0.05,12.950000000000001,0)" xlink:href="#X"/><use transform="matrix(0.05,0,0,0.05,21.950000000000003,0)" xlink:href="#Y"/><use transform="matrix(0.05,0,0,0.05,31.950000000000003,0)" xlink:href="#Z"/></g><path fill="#333" d="M30-248c87 1 191-15 191 75 0 78-77 80-158 76V0H30v-248zm33 125c57 0 124 11 124-50 0-59-68-47-124-48v98" id="aa"/><path fill="#333" d="M194 0L95-120 63-95V0H30v-248h33v124l119-124h40L117-140 236 0h-42" id="ab"/><g id="h"><use transform="matrix(0.05,0,0,0.05,0,0)" xlink:href="#aa"/><use transform="matrix(0.05,0,0,0.05,12,0)" xlink:href="#ab"/></g><path fill="#333" d="M24-231v-30h32v30H24zM24 0v-190h32V0H24" id="ac"/><path fill="#333" d="M85-194c31 0 48 13 60 33l-1-100h32l1 261h-30c-2-10 0-23-3-31C134-8 116 4 85 4 32 4 16-35 15-94c0-66 23-100 70-100zm9 24c-40 0-46 34-46 75 0 40 6 74 45 74 42 0 51-32 51-76 0-42-9-74-50-73" id="ad"/><g id="i"><use transform="matrix(0.05,0,0,0.05,0,0)" xlink:href="#ac"/><use transform="matrix(0.05,0,0,0.05,3.95,0)" xlink:href="#ad"/></g><path fill="#333" d="M117-194c89-4 53 116 60 194h-32v-121c0-31-8-49-39-48C34-167 62-67 57 0H25l-1-190h30c1 10-1 24 2 32 11-22 29-35 61-36" id="ae"/><path fill="#333" d="M59-47c-2 24 18 29 38 22v24C64 9 27 4 27-40v-127H5v-23h24l9-43h21v43h35v23H59v120" id="af"/><g id="j"><use transform="matrix(0.05,0,0,0.05,0,0)" xlink:href="#ac"/><use transform="matrix(0.05,0,0,0.05,3.95,0)" xlink:href="#ae"/><use transform="matrix(0.05,0,0,0.05,13.949999999999998,0)" xlink:href="#af"/></g><path fill="#333" d="M141-36C126-15 110 5 73 4 37 3 15-17 15-53c-1-64 63-63 125-63 3-35-9-54-41-54-24 1-41 7-42 31l-33-3c5-37 33-52 76-52 45 0 72 20 72 64v82c-1 20 7 32 28 27v20c-31 9-61-2-59-35zM48-53c0 20 12 33 32 33 41-3 63-29 60-74-43 2-92-5-92 41" id="ag"/><path fill="#333" d="M210-169c-67 3-38 105-44 169h-31v-121c0-29-5-50-35-48C34-165 62-65 56 0H25l-1-190h30c1 10-1 24 2 32 10-44 99-50 107 0 11-21 27-35 58-36 85-2 47 119 55 194h-31v-121c0-29-5-49-35-48" id="ah"/><g id="k"><use transform="matrix(0.05,0,0,0.05,0,0)" xlink:href="#ae"/><use transform="matrix(0.05,0,0,0.05,10,0)" xlink:href="#ag"/><use transform="matrix(0.05,0,0,0.05,20,0)" xlink:href="#ah"/><use transform="matrix(0.05,0,0,0.05,34.95,0)" xlink:href="#Y"/></g><path fill="#333" d="M177-190C167-65 218 103 67 71c-23-6-38-20-44-43l32-5c15 47 100 32 89-28v-30C133-14 115 1 83 1 29 1 15-40 15-95c0-56 16-97 71-98 29-1 48 16 59 35 1-10 0-23 2-32h30zM94-22c36 0 50-32 50-73 0-42-14-75-50-75-39 0-46 34-46 75s6 73 46 73" id="ai"/><g id="l"><use transform="matrix(0.05,0,0,0.05,0,0)" xlink:href="#X"/><use transform="matrix(0.05,0,0,0.05,9,0)" xlink:href="#af"/><use transform="matrix(0.05,0,0,0.05,14,0)" xlink:href="#Z"/><use transform="matrix(0.05,0,0,0.05,19.95,0)" xlink:href="#ac"/><use transform="matrix(0.05,0,0,0.05,23.9,0)" xlink:href="#ae"/><use transform="matrix(0.05,0,0,0.05,33.9,0)" xlink:href="#ai"/></g><path fill="#333" d="M24 0v-261h32V0H24" id="aj"/><g id="m"><use transform="matrix(0.05,0,0,0.05,0,0)" xlink:href="#Y"/><use transform="matrix(0.05,0,0,0.05,10,0)" xlink:href="#ah"/><use transform="matrix(0.05,0,0,0.05,24.950000000000003,0)" xlink:href="#ag"/><use transform="matrix(0.05,0,0,0.05,34.95,0)" xlink:href="#ac"/><use transform="matrix(0.05,0,0,0.05,38.900000000000006,0)" xlink:href="#aj"/></g><path fill="#333" d="M115-194c55 1 70 41 70 98S169 2 115 4C84 4 66-9 55-30l1 105H24l-1-265h31l2 30c10-21 28-34 59-34zm-8 174c40 0 45-34 45-75s-6-73-45-74c-42 0-51 32-51 76 0 43 10 73 51 73" id="ak"/><path fill="#333" d="M206 0h-36l-40-164L89 0H53L-1-190h32L70-26l43-164h34l41 164 42-164h31" id="al"/><path fill="#333" d="M100-194c62-1 85 37 85 99 1 63-27 99-86 99S16-35 15-95c0-66 28-99 85-99zM99-20c44 1 53-31 53-75 0-43-8-75-51-75s-53 32-53 75 10 74 51 75" id="am"/><g id="n"><use transform="matrix(0.05,0,0,0.05,0,0)" xlink:href="#ak"/><use transform="matrix(0.05,0,0,0.05,10,0)" xlink:href="#ag"/><use transform="matrix(0.05,0,0,0.05,20,0)" xlink:href="#X"/><use transform="matrix(0.05,0,0,0.05,29,0)" xlink:href="#X"/><use transform="matrix(0.05,0,0,0.05,38,0)" xlink:href="#al"/><use transform="matrix(0.05,0,0,0.05,50.95,0)" xlink:href="#am"/><use transform="matrix(0.05,0,0,0.05,60.95,0)" xlink:href="#Z"/><use transform="matrix(0.05,0,0,0.05,66.9,0)" xlink:href="#ad"/></g><path d="M177-190C167-65 218 103 67 71c-23-6-38-20-44-43l32-5c15 47 100 32 89-28v-30C133-14 115 1 83 1 29 1 15-40 15-95c0-56 16-97 71-98 29-1 48 16 59 35 1-10 0-23 2-32h30zM94-22c36 0 50-32 50-73 0-42-14-75-50-75-39 0-46 34-46 75s6 73 46 73" id="an"/><path d="M114-163C36-179 61-72 57 0H25l-1-190h30c1 12-1 29 2 39 6-27 23-49 58-41v29" id="ao"/><path d="M141-36C126-15 110 5 73 4 37 3 15-17 15-53c-1-64 63-63 125-63 3-35-9-54-41-54-24 1-41 7-42 31l-33-3c5-37 33-52 76-52 45 0 72 20 72 64v82c-1 20 7 32 28 27v20c-31 9-61-2-59-35zM48-53c0 20 12 33 32 33 41-3 63-29 60-74-43 2-92-5-92 41" id="ap"/><path d="M108 0H70L1-190h34L89-25l56-165h34" id="aq"/><path d="M59-47c-2 24 18 29 38 22v24C64 9 27 4 27-40v-127H5v-23h24l9-43h21v43h35v23H59v120" id="ar"/><path d="M-5 72V49h209v23H-5" id="as"/><path d="M84 4C-5 8 30-112 23-190h32v120c0 31 7 50 39 49 72-2 45-101 50-169h31l1 190h-30c-1-10 1-25-2-33-11 22-28 36-60 37" id="at"/><path d="M24 0v-261h32V0H24" id="au"/><g id="o"><use transform="matrix(0.05,0,0,0.05,0,0)" xlink:href="#an"/><use transform="matrix(0.05,0,0,0.05,10,0)" xlink:href="#ao"/><use transform="matrix(0.05,0,0,0.05,15.949999999999998,0)" xlink:href="#ap"/><use transform="matrix(0.05,0,0,0.05,25.950000000000003,0)" xlink:href="#aq"/><use transform="matrix(0.05,0,0,0.05,34.95,0)" xlink:href="#ap"/><use transform="matrix(0.05,0,0,0.05,44.95,0)" xlink:href="#ar"/><use transform="matrix(0.05,0,0,0.05,49.95,0)" xlink:href="#ap"/><use transform="matrix(0.05,0,0,0.05,59.95,0)" xlink:href="#ao"/><use transform="matrix(0.05,0,0,0.05,65.9,0)" xlink:href="#as"/><use transform="matrix(0.05,0,0,0.05,75.9,0)" xlink:href="#at"/><use transform="matrix(0.05,0,0,0.05,85.9,0)" xlink:href="#ao"/><use transform="matrix(0.05,0,0,0.05,91.85000000000001,0)" xlink:href="#au"/></g><path d="M135-143c-3-34-86-38-87 0 15 53 115 12 119 90S17 21 10-45l28-5c4 36 97 45 98 0-10-56-113-15-118-90-4-57 82-63 122-42 12 7 21 19 24 35" id="av"/><path d="M24-231v-30h32v30H24zM24 0v-190h32V0H24" id="aw"/><path d="M117-194c89-4 53 116 60 194h-32v-121c0-31-8-49-39-48C34-167 62-67 57 0H25l-1-190h30c1 10-1 24 2 32 11-22 29-35 61-36" id="ax"/><g id="p"><use transform="matrix(0.05,0,0,0.05,0,0)" xlink:href="#av"/><use transform="matrix(0.05,0,0,0.05,9,0)" xlink:href="#ar"/><use transform="matrix(0.05,0,0,0.05,14,0)" xlink:href="#ao"/><use transform="matrix(0.05,0,0,0.05,19.95,0)" xlink:href="#aw"/><use transform="matrix(0.05,0,0,0.05,23.9,0)" xlink:href="#ax"/><use transform="matrix(0.05,0,0,0.05,33.9,0)" xlink:href="#an"/></g><g id="q"><use transform="matrix(0.05,0,0,0.05,0,0)" xlink:href="#aa"/><use transform="matrix(0.05,0,0,0.05,12,0)" xlink:href="#am"/><use transform="matrix(0.05,0,0,0.05,22,0)" xlink:href="#X"/><use transform="matrix(0.05,0,0,0.05,31,0)" xlink:href="#af"/></g><g id="r"><use transform="matrix(0.05,0,0,0.05,0,0)" xlink:href="#af"/><use transform="matrix(0.05,0,0,0.05,5,0)" xlink:href="#ac"/><use transform="matrix(0.05,0,0,0.05,8.95,0)" xlink:href="#af"/><use transform="matrix(0.05,0,0,0.05,13.949999999999998,0)" xlink:href="#aj"/><use transform="matrix(0.05,0,0,0.05,17.9,0)" xlink:href="#Y"/></g><path fill="#333" d="M115-194c53 0 69 39 70 98 0 66-23 100-70 100C84 3 66-7 56-30L54 0H23l1-261h32v101c10-23 28-34 59-34zm-8 174c40 0 45-34 45-75 0-40-5-75-45-74-42 0-51 32-51 76 0 43 10 73 51 73" id="ay"/><path fill="#333" d="M179-190L93 31C79 59 56 82 12 73V49c39 6 53-20 64-50L1-190h34L92-34l54-156h33" id="az"/><g id="s"><use transform="matrix(0.05,0,0,0.05,0,0)" xlink:href="#ay"/><use transform="matrix(0.05,0,0,0.05,10,0)" xlink:href="#am"/><use transform="matrix(0.05,0,0,0.05,20,0)" xlink:href="#ad"/><use transform="matrix(0.05,0,0,0.05,30,0)" xlink:href="#az"/></g><path fill="#333" d="M141 0L90-78 38 0H4l68-98-65-92h35l48 74 47-74h35l-64 92 68 98h-35" id="aA"/><g id="t"><use transform="matrix(0.05,0,0,0.05,0,0)" xlink:href="#af"/><use transform="matrix(0.05,0,0,0.05,5,0)" xlink:href="#Y"/><use transform="matrix(0.05,0,0,0.05,15,0)" xlink:href="#aA"/><use transform="matrix(0.05,0,0,0.05,24,0)" xlink:href="#af"/></g><path d="M63-220v92h138v28H63V0H30v-248h175v28H63" id="aB"/><path d="M194 0L95-120 63-95V0H30v-248h33v124l119-124h40L117-140 236 0h-42" id="aC"/><g id="u"><use transform="matrix(0.05,0,0,0.05,0,0)" xlink:href="#aB"/><use transform="matrix(0.05,0,0,0.05,10.950000000000001,0)" xlink:href="#aC"/></g><path d="M106-169C34-169 62-67 57 0H25v-261h32l-1 103c12-21 28-36 61-36 89 0 53 116 60 194h-32v-121c2-32-8-49-39-48" id="aD"/><path d="M100-194c62-1 85 37 85 99 1 63-27 99-86 99S16-35 15-95c0-66 28-99 85-99zM99-20c44 1 53-31 53-75 0-43-8-75-51-75s-53 32-53 75 10 74 51 75" id="aE"/><path d="M85-194c31 0 48 13 60 33l-1-100h32l1 261h-30c-2-10 0-23-3-31C134-8 116 4 85 4 32 4 16-35 15-94c0-66 23-100 70-100zm9 24c-40 0-46 34-46 75 0 40 6 74 45 74 42 0 51-32 51-76 0-42-9-74-50-73" id="aF"/><g id="v"><use transform="matrix(0.05,0,0,0.05,0,0)" xlink:href="#ap"/><use transform="matrix(0.05,0,0,0.05,10,0)" xlink:href="#at"/><use transform="matrix(0.05,0,0,0.05,20,0)" xlink:href="#ar"/><use transform="matrix(0.05,0,0,0.05,25,0)" xlink:href="#aD"/><use transform="matrix(0.05,0,0,0.05,35,0)" xlink:href="#aE"/><use transform="matrix(0.05,0,0,0.05,45,0)" xlink:href="#ao"/><use transform="matrix(0.05,0,0,0.05,50.95,0)" xlink:href="#as"/><use transform="matrix(0.05,0,0,0.05,60.95,0)" xlink:href="#aw"/><use transform="matrix(0.05,0,0,0.05,64.9,0)" xlink:href="#aF"/></g><g id="w"><use transform="matrix(0.05,0,0,0.05,0,0)" xlink:href="#aw"/><use transform="matrix(0.05,0,0,0.05,3.95,0)" xlink:href="#ax"/><use transform="matrix(0.05,0,0,0.05,13.949999999999998,0)" xlink:href="#ar"/></g><path fill="#333" d="M212-179c-10-28-35-45-73-45-59 0-87 40-87 99 0 60 29 101 89 101 43 0 62-24 78-52l27 14C228-24 195 4 139 4 59 4 22-46 18-125c-6-104 99-153 187-111 19 9 31 26 39 46" id="aG"/><g id="x"><use transform="matrix(0.05,0,0,0.05,0,0)" xlink:href="#aG"/><use transform="matrix(0.05,0,0,0.05,12.950000000000001,0)" xlink:href="#am"/><use transform="matrix(0.05,0,0,0.05,22.950000000000003,0)" xlink:href="#ah"/><use transform="matrix(0.05,0,0,0.05,37.900000000000006,0)" xlink:href="#ah"/><use transform="matrix(0.05,0,0,0.05,52.85,0)" xlink:href="#Y"/><use transform="matrix(0.05,0,0,0.05,62.85,0)" xlink:href="#ae"/><use transform="matrix(0.05,0,0,0.05,72.85000000000001,0)" xlink:href="#af"/></g><path fill="#333" d="M63-220v92h138v28H63V0H30v-248h175v28H63" id="aH"/><g id="y"><use transform="matrix(0.05,0,0,0.05,0,0)" xlink:href="#aH"/><use transform="matrix(0.05,0,0,0.05,10.950000000000001,0)" xlink:href="#ab"/></g><path fill="#333" d="M-5 72V49h209v23H-5" id="aI"/><g id="z"><use transform="matrix(0.05,0,0,0.05,0,0)" xlink:href="#ak"/><use transform="matrix(0.05,0,0,0.05,10,0)" xlink:href="#am"/><use transform="matrix(0.05,0,0,0.05,20,0)" xlink:href="#X"/><use transform="matrix(0.05,0,0,0.05,29,0)" xlink:href="#af"/><use transform="matrix(0.05,0,0,0.05,34,0)" xlink:href="#aI"/><use transform="matrix(0.05,0,0,0.05,44,0)" xlink:href="#ac"/><use transform="matrix(0.05,0,0,0.05,47.95,0)" xlink:href="#ad"/></g><path d="M100-194c63 0 86 42 84 106H49c0 40 14 67 53 68 26 1 43-12 49-29l28 8c-11 28-37 45-77 45C44 4 14-33 15-96c1-61 26-98 85-98zm52 81c6-60-76-77-97-28-3 7-6 17-6 28h103" id="aJ"/><g id="A"><use transform="matrix(0.05,0,0,0.05,0,0)" xlink:href="#at"/><use transform="matrix(0.05,0,0,0.05,10,0)" xlink:href="#av"/><use transform="matrix(0.05,0,0,0.05,19,0)" xlink:href="#aJ"/><use transform="matrix(0.05,0,0,0.05,29,0)" xlink:href="#ao"/><use transform="matrix(0.05,0,0,0.05,34.95,0)" xlink:href="#as"/><use transform="matrix(0.05,0,0,0.05,44.95,0)" xlink:href="#aw"/><use transform="matrix(0.05,0,0,0.05,48.900000000000006,0)" xlink:href="#aF"/></g><path fill="#333" d="M30 0v-248h33v221h125V0H30" id="aK"/><path fill="#333" d="M143 0L79-87 56-68V0H24v-261h32v163l83-92h37l-77 82L181 0h-38" id="aL"/><g id="B"><use transform="matrix(0.05,0,0,0.05,0,0)" xlink:href="#aK"/><use transform="matrix(0.05,0,0,0.05,10,0)" xlink:href="#ac"/><use transform="matrix(0.05,0,0,0.05,13.949999999999998,0)" xlink:href="#aL"/><use transform="matrix(0.05,0,0,0.05,22.95,0)" xlink:href="#Y"/></g><path fill="#333" d="M84 4C-5 8 30-112 23-190h32v120c0 31 7 50 39 49 72-2 45-101 50-169h31l1 190h-30c-1-10 1-25-2-33-11 22-28 36-60 37" id="aM"/><g id="C"><use transform="matrix(0.05,0,0,0.05,0,0)" xlink:href="#aM"/><use transform="matrix(0.05,0,0,0.05,10,0)" xlink:href="#X"/><use transform="matrix(0.05,0,0,0.05,19,0)" xlink:href="#Y"/><use transform="matrix(0.05,0,0,0.05,29,0)" xlink:href="#Z"/><use transform="matrix(0.05,0,0,0.05,34.95,0)" xlink:href="#aI"/><use transform="matrix(0.05,0,0,0.05,44.95,0)" xlink:href="#ac"/><use transform="matrix(0.05,0,0,0.05,48.900000000000006,0)" xlink:href="#ad"/></g><path fill="#333" d="M106-169C34-169 62-67 57 0H25v-261h32l-1 103c12-21 28-36 61-36 89 0 53 116 60 194h-32v-121c2-32-8-49-39-48" id="aN"/><g id="D"><use transform="matrix(0.05,0,0,0.05,0,0)" xlink:href="#aH"/><use transform="matrix(0.05,0,0,0.05,10.950000000000001,0)" xlink:href="#Z"/><use transform="matrix(0.05,0,0,0.05,16.900000000000002,0)" xlink:href="#ac"/><use transform="matrix(0.05,0,0,0.05,20.85,0)" xlink:href="#Y"/><use transform="matrix(0.05,0,0,0.05,30.85,0)" xlink:href="#ae"/><use transform="matrix(0.05,0,0,0.05,40.85,0)" xlink:href="#ad"/><use transform="matrix(0.05,0,0,0.05,50.85,0)" xlink:href="#X"/><use transform="matrix(0.05,0,0,0.05,59.85,0)" xlink:href="#aN"/><use transform="matrix(0.05,0,0,0.05,69.85,0)" xlink:href="#ac"/><use transform="matrix(0.05,0,0,0.05,73.8,0)" xlink:href="#ak"/></g><g id="E"><use transform="matrix(0.05,0,0,0.05,0,0)" xlink:href="#X"/><use transform="matrix(0.05,0,0,0.05,9,0)" xlink:href="#Y"/><use transform="matrix(0.05,0,0,0.05,19,0)" xlink:href="#ae"/><use transform="matrix(0.05,0,0,0.05,29,0)" xlink:href="#ad"/><use transform="matrix(0.05,0,0,0.05,39,0)" xlink:href="#Y"/><use transform="matrix(0.05,0,0,0.05,49,0)" xlink:href="#Z"/><use transform="matrix(0.05,0,0,0.05,54.95,0)" xlink:href="#aI"/><use transform="matrix(0.05,0,0,0.05,64.95,0)" xlink:href="#ac"/><use transform="matrix(0.05,0,0,0.05,68.9,0)" xlink:href="#ad"/></g><path fill="#333" d="M96-169c-40 0-48 33-48 73s9 75 48 75c24 0 41-14 43-38l32 2c-6 37-31 61-74 61-59 0-76-41-82-99-10-93 101-131 147-64 4 7 5 14 7 22l-32 3c-4-21-16-35-41-35" id="aO"/><path fill="#333" d="M108 0H70L1-190h34L89-25l56-165h34" id="aP"/><g id="F"><use transform="matrix(0.05,0,0,0.05,0,0)" xlink:href="#Z"/><use transform="matrix(0.05,0,0,0.05,5.95,0)" xlink:href="#Y"/><use transform="matrix(0.05,0,0,0.05,15.949999999999998,0)" xlink:href="#ac"/><use transform="matrix(0.05,0,0,0.05,19.9,0)" xlink:href="#aO"/><use transform="matrix(0.05,0,0,0.05,28.899999999999995,0)" xlink:href="#Y"/><use transform="matrix(0.05,0,0,0.05,38.9,0)" xlink:href="#ac"/><use transform="matrix(0.05,0,0,0.05,42.85,0)" xlink:href="#aP"/><use transform="matrix(0.05,0,0,0.05,51.85,0)" xlink:href="#Y"/><use transform="matrix(0.05,0,0,0.05,61.85,0)" xlink:href="#Z"/><use transform="matrix(0.05,0,0,0.05,67.8,0)" xlink:href="#aI"/><use transform="matrix(0.05,0,0,0.05,77.8,0)" xlink:href="#ac"/><use transform="matrix(0.05,0,0,0.05,81.75,0)" xlink:href="#ad"/></g><g id="G"><use transform="matrix(0.05,0,0,0.05,0,0)" xlink:href="#av"/><use transform="matrix(0.05,0,0,0.05,9,0)" xlink:href="#ar"/><use transform="matrix(0.05,0,0,0.05,14,0)" xlink:href="#ap"/><use transform="matrix(0.05,0,0,0.05,24,0)" xlink:href="#ar"/><use transform="matrix(0.05,0,0,0.05,29,0)" xlink:href="#at"/><use transform="matrix(0.05,0,0,0.05,39,0)" xlink:href="#av"/></g></defs></g></svg>