<svg xmlns="http://www.w3.org/2000/svg" xmlns:xlink="http://www.w3.org/1999/xlink" xmlns:lucid="lucid" width="934" height="634"><g transform="translate(-413 -162)" lucid:page-tab-id="0_0"><path d="M0 0h1760v1360H0z" fill="#fff"/><path d="M500 228c0-4.42 3.58-8 8-8h264c4.42 0 8 3.58 8 8v184c0 4.42-3.58 8-8 8H508c-4.42 0-8-3.58-8-8z" fill="#fff"/><path d="M500 292h280v32H500zM500 356h280v32H500z" fill="#e6e6e6"/><path d="M500 228c0-4.42 3.58-8 8-8h264c4.42 0 8 3.58 8 8v184c0 4.42-3.58 8-8 8H508c-4.42 0-8-3.58-8-8zM500 260h280M560 260v160M670 260v160" stroke="#333" fill="none"/><use xlink:href="#a" transform="matrix(1,0,0,1,510,220) translate(111.05 23.6)"/><use xlink:href="#b" transform="matrix(1,0,0,1,505,262.5) translate(0 17.1)"/><use xlink:href="#c" transform="matrix(1,0,0,1,565,262.5) translate(0 17.1)"/><use xlink:href="#d" transform="matrix(1,0,0,1,675,262.5) translate(0 17.1)"/><use xlink:href="#e" transform="matrix(1,0,0,1,565,294.5) translate(0 17.1)"/><use xlink:href="#f" transform="matrix(1,0,0,1,675,294.5) translate(0 17.1)"/><use xlink:href="#g" transform="matrix(1,0,0,1,565,326.5) translate(0 17.1)"/><use xlink:href="#f" transform="matrix(1,0,0,1,675,326.5) translate(0 17.1)"/><use xlink:href="#h" transform="matrix(1,0,0,1,565,358.5) translate(0 17.1)"/><use xlink:href="#f" transform="matrix(1,0,0,1,675,358.5) translate(0 17.1)"/><use xlink:href="#i" transform="matrix(1,0,0,1,565,390.5) translate(0 17.1)"/><use xlink:href="#j" transform="matrix(1,0,0,1,675,390.5) translate(0 17.1)"/><path d="M920 228c0-4.42 3.58-8 8-8h244c4.42 0 8 3.58 8 8v152c0 4.42-3.58 8-8 8H928c-4.42 0-8-3.58-8-8z" fill="#fff"/><path d="M920 292h260v32H920zM920 356h260v32H920z" fill="#e6e6e6"/><path d="M920 228c0-4.42 3.58-8 8-8h244c4.42 0 8 3.58 8 8v152c0 4.42-3.58 8-8 8H928c-4.42 0-8-3.58-8-8zM920 260h260M980 260v128M1080 260v128" stroke="#333" fill="none"/><use xlink:href="#k" transform="matrix(1,0,0,1,930,220) translate(102 23.6)"/><use xlink:href="#b" transform="matrix(1,0,0,1,925,262.5) translate(0 17.1)"/><use xlink:href="#c" transform="matrix(1,0,0,1,985,262.5) translate(0 17.1)"/><use xlink:href="#d" transform="matrix(1,0,0,1,1085,262.5) translate(0 17.1)"/><use xlink:href="#l" transform="matrix(1,0,0,1,985,294.5) translate(0 17.1)"/><use xlink:href="#f" transform="matrix(1,0,0,1,1085,294.5) translate(0 17.1)"/><use xlink:href="#m" transform="matrix(1,0,0,1,985,326.5) translate(0 17.1)"/><use xlink:href="#n" transform="matrix(1,0,0,1,1085,326.5) translate(0 17.1)"/><use xlink:href="#o" transform="matrix(1,0,0,1,925,358.5) translate(13.524999999999999 17.1)"/><use xlink:href="#p" transform="matrix(1,0,0,1,985,358.5) translate(0 17.1)"/><use xlink:href="#q" transform="matrix(1,0,0,1,1085,358.5) translate(0 17.1)"/><path d="M800.5 276H858c6.63 0 12 5.37 12 12v74c0 5.52 4.48 10 10 10" stroke="#333" fill="none"/><path d="M800.5 286v-20M780.5 276h20M919.28 382l-20-10 20-10M919.28 372h-20M899.28 372c0 5.52-4.48 10-10 10-5.53 0-10-4.48-10-10s4.47-10 10-10c5.52 0 10 4.48 10 10" stroke="#333" fill="#fff"/><path d="M920 428c0-4.42 3.58-8 8-8h244c4.42 0 8 3.58 8 8v152c0 4.42-3.58 8-8 8H928c-4.42 0-8-3.58-8-8z" fill="#fff"/><path d="M920 492h260v32H920zM920 556h260v32H920z" fill="#e6e6e6"/><path d="M920 428c0-4.42 3.58-8 8-8h244c4.42 0 8 3.58 8 8v152c0 4.42-3.58 8-8 8H928c-4.42 0-8-3.58-8-8zM920 460h260M980 460v128M1080 460v128" stroke="#333" fill="none"/><use xlink:href="#r" transform="matrix(1,0,0,1,930,420) translate(81.07499999999999 23.6)"/><use xlink:href="#b" transform="matrix(1,0,0,1,925,462.5) translate(0 17.1)"/><use xlink:href="#c" transform="matrix(1,0,0,1,985,462.5) translate(0 17.1)"/><use xlink:href="#d" transform="matrix(1,0,0,1,1085,462.5) translate(0 17.1)"/><use xlink:href="#s" transform="matrix(1,0,0,1,925,494.5) translate(0 17.1)"/><use xlink:href="#t" transform="matrix(1,0,0,1,985,494.5) translate(0 17.1)"/><use xlink:href="#d" transform="matrix(1,0,0,1,1085,494.5) translate(0 17.1)"/><use xlink:href="#o" transform="matrix(1,0,0,1,925,526.5) translate(0 17.1)"/><use xlink:href="#u" transform="matrix(1,0,0,1,985,526.5) translate(0 17.1)"/><use xlink:href="#q" transform="matrix(1,0,0,1,1085,526.5) translate(0 17.1)"/><use xlink:href="#n" transform="matrix(1,0,0,1,985,558.5) translate(0 17.1)"/><use xlink:href="#n" transform="matrix(1,0,0,1,1085,558.5) translate(0 17.1)"/><path d="M1200.5 276h17.5c6.63 0 12 5.37 12 12v210c0 5.52-4.48 10-10 10" stroke="#333" fill="none"/><path d="M1200.5 286v-20M1180.5 276h20M1180.72 498l20 10-20 10M1180.72 508h20M1220.72 508c0 5.52-4.47 10-10 10-5.52 0-10-4.48-10-10s4.48-10 10-10c5.53 0 10 4.48 10 10" stroke="#333" fill="#fff"/><path d="M800.5 276H838c6.63 0 12 5.37 12 12v240c0 6.63 5.37 12 12 12h18" stroke="#333" fill="none"/><path d="M800.5 286v-20M780.5 276h20M919.28 550l-20-10 20-10M919.28 540h-20M899.28 540c0 5.52-4.48 10-10 10-5.53 0-10-4.48-10-10s4.47-10 10-10c5.52 0 10 4.48 10 10" stroke="#333" fill="#fff"/><path d="M880 628c0-4.42 3.58-8 8-8h244c4.42 0 8 3.58 8 8v120c0 4.42-3.58 8-8 8H888c-4.42 0-8-3.58-8-8z" fill="#fff"/><path d="M880 692h260v32H880z" fill="#e6e6e6"/><path d="M880 628c0-4.42 3.58-8 8-8h244c4.42 0 8 3.58 8 8v120c0 4.42-3.58 8-8 8H888c-4.42 0-8-3.58-8-8zM880 660h260M940 660v96M1040 660v96" stroke="#333" fill="none"/><use xlink:href="#v" transform="matrix(1,0,0,1,890,620) translate(103.525 23.6)"/><use xlink:href="#b" transform="matrix(1,0,0,1,885,662.5) translate(0 17.1)"/><use xlink:href="#c" transform="matrix(1,0,0,1,945,662.5) translate(0 17.1)"/><use xlink:href="#d" transform="matrix(1,0,0,1,1045,662.5) translate(0 17.1)"/><use xlink:href="#s" transform="matrix(1,0,0,1,885,694.5) translate(0 17.1)"/><use xlink:href="#t" transform="matrix(1,0,0,1,945,694.5) translate(0 17.1)"/><use xlink:href="#d" transform="matrix(1,0,0,1,1045,694.5) translate(0 17.1)"/><use xlink:href="#s" transform="matrix(1,0,0,1,885,726.5) translate(0 17.1)"/><use xlink:href="#w" transform="matrix(1,0,0,1,945,726.5) translate(0 17.1)"/><use xlink:href="#d" transform="matrix(1,0,0,1,1045,726.5) translate(0 17.1)"/><path d="M800.5 276h7.5c6.63 0 12 5.37 12 12v440.2c0 6.63 5.37 12 12 12h8" stroke="#333" fill="none"/><path d="M800.5 286v-20M780.5 276h20M879.28 750.2l-20-10 20-10M879.28 740.2h-20M859.28 740.2c0 5.52-4.48 10-10 10-5.53 0-10-4.48-10-10s4.47-10 10-10c5.52 0 10 4.48 10 10" stroke="#333" fill="#fff"/><path d="M1200.5 275.9h47.5c6.63 0 12 5.36 12 12v408.84c0 6.63-5.37 12-12 12h-68" stroke="#333" fill="none"/><path d="M1200.5 285.9v-20M1180.5 275.9h20M1140.72 698.74l20 10-20 10M1140.72 708.74h20M1180.72 708.74c0 5.52-4.47 10-10 10-5.52 0-10-4.48-10-10s4.48-10 10-10c5.53 0 10 4.48 10 10" stroke="#333" fill="#fff"/><path d="M500 568c0-4.42 3.58-8 8-8h264c4.42 0 8 3.58 8 8v152c0 4.42-3.58 8-8 8H508c-4.42 0-8-3.58-8-8z" fill="#fff"/><path d="M500 632h280v32H500zM500 696h280v32H500z" fill="#e6e6e6"/><path d="M500 568c0-4.42 3.58-8 8-8h264c4.42 0 8 3.58 8 8v152c0 4.42-3.58 8-8 8H508c-4.42 0-8-3.58-8-8zM500 600h280M560 600v128M670 600v128" stroke="#333" fill="none"/><use xlink:href="#x" transform="matrix(1,0,0,1,510,560) translate(88.1 23.6)"/><use xlink:href="#b" transform="matrix(1,0,0,1,505,602.5) translate(0 17.1)"/><use xlink:href="#c" transform="matrix(1,0,0,1,565,602.5) translate(0 17.1)"/><use xlink:href="#d" transform="matrix(1,0,0,1,675,602.5) translate(0 17.1)"/><use xlink:href="#y" transform="matrix(1,0,0,1,505,634.5) translate(0 17.1)"/><use xlink:href="#z" transform="matrix(1,0,0,1,565,634.5) translate(0 17.1)"/><use xlink:href="#d" transform="matrix(1,0,0,1,675,634.5) translate(0 17.1)"/><use xlink:href="#y" transform="matrix(1,0,0,1,505,666.5) translate(0 17.1)"/><use xlink:href="#A" transform="matrix(1,0,0,1,565,666.5) translate(0 17.1)"/><use xlink:href="#d" transform="matrix(1,0,0,1,675,666.5) translate(0 17.1)"/><use xlink:href="#B" transform="matrix(1,0,0,1,565,698.5) translate(0 17.1)"/><use xlink:href="#j" transform="matrix(1,0,0,1,675,698.5) translate(0 17.1)"/><path d="M640 460v80.1" stroke="#333" fill="none"/><path d="M650 420.72l-10 20-10-20M640 420.72v20M650 450.72c0 5.53-4.48 10-10 10s-10-4.47-10-10c0-5.52 4.48-10 10-10s10 4.48 10 10M630 559.28l10-20 10 20M640 559.28v-20" stroke="#333" fill="#fff"/><defs><path fill="#333" d="M232-93c-1 65-40 97-104 97C67 4 28-28 28-90v-158h33c8 89-33 224 67 224 102 0 64-133 71-224h33v155" id="C"/><path fill="#333" d="M135-143c-3-34-86-38-87 0 15 53 115 12 119 90S17 21 10-45l28-5c4 36 97 45 98 0-10-56-113-15-118-90-4-57 82-63 122-42 12 7 21 19 24 35" id="D"/><path fill="#333" d="M100-194c63 0 86 42 84 106H49c0 40 14 67 53 68 26 1 43-12 49-29l28 8c-11 28-37 45-77 45C44 4 14-33 15-96c1-61 26-98 85-98zm52 81c6-60-76-77-97-28-3 7-6 17-6 28h103" id="E"/><path fill="#333" d="M114-163C36-179 61-72 57 0H25l-1-190h30c1 12-1 29 2 39 6-27 23-49 58-41v29" id="F"/><g id="a"><use transform="matrix(0.05,0,0,0.05,0,0)" xlink:href="#C"/><use transform="matrix(0.05,0,0,0.05,12.950000000000001,0)" xlink:href="#D"/><use transform="matrix(0.05,0,0,0.05,21.950000000000003,0)" xlink:href="#E"/><use transform="matrix(0.05,0,0,0.05,31.950000000000003,0)" xlink:href="#F"/></g><path fill="#333" d="M30-248c87 1 191-15 191 75 0 78-77 80-158 76V0H30v-248zm33 125c57 0 124 11 124-50 0-59-68-47-124-48v98" id="G"/><path fill="#333" d="M194 0L95-120 63-95V0H30v-248h33v124l119-124h40L117-140 236 0h-42" id="H"/><g id="b"><use transform="matrix(0.05,0,0,0.05,0,0)" xlink:href="#G"/><use transform="matrix(0.05,0,0,0.05,12,0)" xlink:href="#H"/></g><path fill="#333" d="M24-231v-30h32v30H24zM24 0v-190h32V0H24" id="I"/><path fill="#333" d="M85-194c31 0 48 13 60 33l-1-100h32l1 261h-30c-2-10 0-23-3-31C134-8 116 4 85 4 32 4 16-35 15-94c0-66 23-100 70-100zm9 24c-40 0-46 34-46 75 0 40 6 74 45 74 42 0 51-32 51-76 0-42-9-74-50-73" id="J"/><g id="c"><use transform="matrix(0.05,0,0,0.05,0,0)" xlink:href="#I"/><use transform="matrix(0.05,0,0,0.05,3.95,0)" xlink:href="#J"/></g><path fill="#333" d="M117-194c89-4 53 116 60 194h-32v-121c0-31-8-49-39-48C34-167 62-67 57 0H25l-1-190h30c1 10-1 24 2 32 11-22 29-35 61-36" id="K"/><path fill="#333" d="M59-47c-2 24 18 29 38 22v24C64 9 27 4 27-40v-127H5v-23h24l9-43h21v43h35v23H59v120" id="L"/><g id="d"><use transform="matrix(0.05,0,0,0.05,0,0)" xlink:href="#I"/><use transform="matrix(0.05,0,0,0.05,3.95,0)" xlink:href="#K"/><use transform="matrix(0.05,0,0,0.05,13.949999999999998,0)" xlink:href="#L"/></g><path fill="#333" d="M141-36C126-15 110 5 73 4 37 3 15-17 15-53c-1-64 63-63 125-63 3-35-9-54-41-54-24 1-41 7-42 31l-33-3c5-37 33-52 76-52 45 0 72 20 72 64v82c-1 20 7 32 28 27v20c-31 9-61-2-59-35zM48-53c0 20 12 33 32 33 41-3 63-29 60-74-43 2-92-5-92 41" id="M"/><path fill="#333" d="M210-169c-67 3-38 105-44 169h-31v-121c0-29-5-50-35-48C34-165 62-65 56 0H25l-1-190h30c1 10-1 24 2 32 10-44 99-50 107 0 11-21 27-35 58-36 85-2 47 119 55 194h-31v-121c0-29-5-49-35-48" id="N"/><g id="e"><use transform="matrix(0.05,0,0,0.05,0,0)" xlink:href="#K"/><use transform="matrix(0.05,0,0,0.05,10,0)" xlink:href="#M"/><use transform="matrix(0.05,0,0,0.05,20,0)" xlink:href="#N"/><use transform="matrix(0.05,0,0,0.05,34.95,0)" xlink:href="#E"/></g><path fill="#333" d="M177-190C167-65 218 103 67 71c-23-6-38-20-44-43l32-5c15 47 100 32 89-28v-30C133-14 115 1 83 1 29 1 15-40 15-95c0-56 16-97 71-98 29-1 48 16 59 35 1-10 0-23 2-32h30zM94-22c36 0 50-32 50-73 0-42-14-75-50-75-39 0-46 34-46 75s6 73 46 73" id="O"/><g id="f"><use transform="matrix(0.05,0,0,0.05,0,0)" xlink:href="#D"/><use transform="matrix(0.05,0,0,0.05,9,0)" xlink:href="#L"/><use transform="matrix(0.05,0,0,0.05,14,0)" xlink:href="#F"/><use transform="matrix(0.05,0,0,0.05,19.95,0)" xlink:href="#I"/><use transform="matrix(0.05,0,0,0.05,23.9,0)" xlink:href="#K"/><use transform="matrix(0.05,0,0,0.05,33.9,0)" xlink:href="#O"/></g><path fill="#333" d="M24 0v-261h32V0H24" id="P"/><g id="g"><use transform="matrix(0.05,0,0,0.05,0,0)" xlink:href="#E"/><use transform="matrix(0.05,0,0,0.05,10,0)" xlink:href="#N"/><use transform="matrix(0.05,0,0,0.05,24.950000000000003,0)" xlink:href="#M"/><use transform="matrix(0.05,0,0,0.05,34.95,0)" xlink:href="#I"/><use transform="matrix(0.05,0,0,0.05,38.900000000000006,0)" xlink:href="#P"/></g><path fill="#333" d="M115-194c55 1 70 41 70 98S169 2 115 4C84 4 66-9 55-30l1 105H24l-1-265h31l2 30c10-21 28-34 59-34zm-8 174c40 0 45-34 45-75s-6-73-45-74c-42 0-51 32-51 76 0 43 10 73 51 73" id="Q"/><path fill="#333" d="M206 0h-36l-40-164L89 0H53L-1-190h32L70-26l43-164h34l41 164 42-164h31" id="R"/><path fill="#333" d="M100-194c62-1 85 37 85 99 1 63-27 99-86 99S16-35 15-95c0-66 28-99 85-99zM99-20c44 1 53-31 53-75 0-43-8-75-51-75s-53 32-53 75 10 74 51 75" id="S"/><g id="h"><use transform="matrix(0.05,0,0,0.05,0,0)" xlink:href="#Q"/><use transform="matrix(0.05,0,0,0.05,10,0)" xlink:href="#M"/><use transform="matrix(0.05,0,0,0.05,20,0)" xlink:href="#D"/><use transform="matrix(0.05,0,0,0.05,29,0)" xlink:href="#D"/><use transform="matrix(0.05,0,0,0.05,38,0)" xlink:href="#R"/><use transform="matrix(0.05,0,0,0.05,50.95,0)" xlink:href="#S"/><use transform="matrix(0.05,0,0,0.05,60.95,0)" xlink:href="#F"/><use transform="matrix(0.05,0,0,0.05,66.9,0)" xlink:href="#J"/></g><path d="M177-190C167-65 218 103 67 71c-23-6-38-20-44-43l32-5c15 47 100 32 89-28v-30C133-14 115 1 83 1 29 1 15-40 15-95c0-56 16-97 71-98 29-1 48 16 59 35 1-10 0-23 2-32h30zM94-22c36 0 50-32 50-73 0-42-14-75-50-75-39 0-46 34-46 75s6 73 46 73" id="T"/><path d="M114-163C36-179 61-72 57 0H25l-1-190h30c1 12-1 29 2 39 6-27 23-49 58-41v29" id="U"/><path d="M141-36C126-15 110 5 73 4 37 3 15-17 15-53c-1-64 63-63 125-63 3-35-9-54-41-54-24 1-41 7-42 31l-33-3c5-37 33-52 76-52 45 0 72 20 72 64v82c-1 20 7 32 28 27v20c-31 9-61-2-59-35zM48-53c0 20 12 33 32 33 41-3 63-29 60-74-43 2-92-5-92 41" id="V"/><path d="M108 0H70L1-190h34L89-25l56-165h34" id="W"/><path d="M59-47c-2 24 18 29 38 22v24C64 9 27 4 27-40v-127H5v-23h24l9-43h21v43h35v23H59v120" id="X"/><path d="M-5 72V49h209v23H-5" id="Y"/><path d="M84 4C-5 8 30-112 23-190h32v120c0 31 7 50 39 49 72-2 45-101 50-169h31l1 190h-30c-1-10 1-25-2-33-11 22-28 36-60 37" id="Z"/><path d="M24 0v-261h32V0H24" id="aa"/><g id="i"><use transform="matrix(0.05,0,0,0.05,0,0)" xlink:href="#T"/><use transform="matrix(0.05,0,0,0.05,10,0)" xlink:href="#U"/><use transform="matrix(0.05,0,0,0.05,15.949999999999998,0)" xlink:href="#V"/><use transform="matrix(0.05,0,0,0.05,25.950000000000003,0)" xlink:href="#W"/><use transform="matrix(0.05,0,0,0.05,34.95,0)" xlink:href="#V"/><use transform="matrix(0.05,0,0,0.05,44.95,0)" xlink:href="#X"/><use transform="matrix(0.05,0,0,0.05,49.95,0)" xlink:href="#V"/><use transform="matrix(0.05,0,0,0.05,59.95,0)" xlink:href="#U"/><use transform="matrix(0.05,0,0,0.05,65.9,0)" xlink:href="#Y"/><use transform="matrix(0.05,0,0,0.05,75.9,0)" xlink:href="#Z"/><use transform="matrix(0.05,0,0,0.05,85.9,0)" xlink:href="#U"/><use transform="matrix(0.05,0,0,0.05,91.85000000000001,0)" xlink:href="#aa"/></g><path d="M135-143c-3-34-86-38-87 0 15 53 115 12 119 90S17 21 10-45l28-5c4 36 97 45 98 0-10-56-113-15-118-90-4-57 82-63 122-42 12 7 21 19 24 35" id="ab"/><path d="M24-231v-30h32v30H24zM24 0v-190h32V0H24" id="ac"/><path d="M117-194c89-4 53 116 60 194h-32v-121c0-31-8-49-39-48C34-167 62-67 57 0H25l-1-190h30c1 10-1 24 2 32 11-22 29-35 61-36" id="ad"/><g id="j"><use transform="matrix(0.05,0,0,0.05,0,0)" xlink:href="#ab"/><use transform="matrix(0.05,0,0,0.05,9,0)" xlink:href="#X"/><use transform="matrix(0.05,0,0,0.05,14,0)" xlink:href="#U"/><use transform="matrix(0.05,0,0,0.05,19.95,0)" xlink:href="#ac"/><use transform="matrix(0.05,0,0,0.05,23.9,0)" xlink:href="#ad"/><use transform="matrix(0.05,0,0,0.05,33.9,0)" xlink:href="#T"/></g><g id="k"><use transform="matrix(0.05,0,0,0.05,0,0)" xlink:href="#G"/><use transform="matrix(0.05,0,0,0.05,12,0)" xlink:href="#S"/><use transform="matrix(0.05,0,0,0.05,22,0)" xlink:href="#D"/><use transform="matrix(0.05,0,0,0.05,31,0)" xlink:href="#L"/></g><g id="l"><use transform="matrix(0.05,0,0,0.05,0,0)" xlink:href="#L"/><use transform="matrix(0.05,0,0,0.05,5,0)" xlink:href="#I"/><use transform="matrix(0.05,0,0,0.05,8.95,0)" xlink:href="#L"/><use transform="matrix(0.05,0,0,0.05,13.949999999999998,0)" xlink:href="#P"/><use transform="matrix(0.05,0,0,0.05,17.9,0)" xlink:href="#E"/></g><path fill="#333" d="M115-194c53 0 69 39 70 98 0 66-23 100-70 100C84 3 66-7 56-30L54 0H23l1-261h32v101c10-23 28-34 59-34zm-8 174c40 0 45-34 45-75 0-40-5-75-45-74-42 0-51 32-51 76 0 43 10 73 51 73" id="ae"/><path fill="#333" d="M179-190L93 31C79 59 56 82 12 73V49c39 6 53-20 64-50L1-190h34L92-34l54-156h33" id="af"/><g id="m"><use transform="matrix(0.05,0,0,0.05,0,0)" xlink:href="#ae"/><use transform="matrix(0.05,0,0,0.05,10,0)" xlink:href="#S"/><use transform="matrix(0.05,0,0,0.05,20,0)" xlink:href="#J"/><use transform="matrix(0.05,0,0,0.05,30,0)" xlink:href="#af"/></g><path fill="#333" d="M141 0L90-78 38 0H4l68-98-65-92h35l48 74 47-74h35l-64 92 68 98h-35" id="ag"/><g id="n"><use transform="matrix(0.05,0,0,0.05,0,0)" xlink:href="#L"/><use transform="matrix(0.05,0,0,0.05,5,0)" xlink:href="#E"/><use transform="matrix(0.05,0,0,0.05,15,0)" xlink:href="#ag"/><use transform="matrix(0.05,0,0,0.05,24,0)" xlink:href="#L"/></g><path d="M63-220v92h138v28H63V0H30v-248h175v28H63" id="ah"/><path d="M194 0L95-120 63-95V0H30v-248h33v124l119-124h40L117-140 236 0h-42" id="ai"/><g id="o"><use transform="matrix(0.05,0,0,0.05,0,0)" xlink:href="#ah"/><use transform="matrix(0.05,0,0,0.05,10.950000000000001,0)" xlink:href="#ai"/></g><path d="M106-169C34-169 62-67 57 0H25v-261h32l-1 103c12-21 28-36 61-36 89 0 53 116 60 194h-32v-121c2-32-8-49-39-48" id="aj"/><path d="M100-194c62-1 85 37 85 99 1 63-27 99-86 99S16-35 15-95c0-66 28-99 85-99zM99-20c44 1 53-31 53-75 0-43-8-75-51-75s-53 32-53 75 10 74 51 75" id="ak"/><path d="M85-194c31 0 48 13 60 33l-1-100h32l1 261h-30c-2-10 0-23-3-31C134-8 116 4 85 4 32 4 16-35 15-94c0-66 23-100 70-100zm9 24c-40 0-46 34-46 75 0 40 6 74 45 74 42 0 51-32 51-76 0-42-9-74-50-73" id="al"/><g id="p"><use transform="matrix(0.05,0,0,0.05,0,0)" xlink:href="#V"/><use transform="matrix(0.05,0,0,0.05,10,0)" xlink:href="#Z"/><use transform="matrix(0.05,0,0,0.05,20,0)" xlink:href="#X"/><use transform="matrix(0.05,0,0,0.05,25,0)" xlink:href="#aj"/><use transform="matrix(0.05,0,0,0.05,35,0)" xlink:href="#ak"/><use transform="matrix(0.05,0,0,0.05,45,0)" xlink:href="#U"/><use transform="matrix(0.05,0,0,0.05,50.95,0)" xlink:href="#Y"/><use transform="matrix(0.05,0,0,0.05,60.95,0)" xlink:href="#ac"/><use transform="matrix(0.05,0,0,0.05,64.9,0)" xlink:href="#al"/></g><g id="q"><use transform="matrix(0.05,0,0,0.05,0,0)" xlink:href="#ac"/><use transform="matrix(0.05,0,0,0.05,3.95,0)" xlink:href="#ad"/><use transform="matrix(0.05,0,0,0.05,13.949999999999998,0)" xlink:href="#X"/></g><path fill="#333" d="M212-179c-10-28-35-45-73-45-59 0-87 40-87 99 0 60 29 101 89 101 43 0 62-24 78-52l27 14C228-24 195 4 139 4 59 4 22-46 18-125c-6-104 99-153 187-111 19 9 31 26 39 46" id="am"/><g id="r"><use transform="matrix(0.05,0,0,0.05,0,0)" xlink:href="#am"/><use transform="matrix(0.05,0,0,0.05,12.950000000000001,0)" xlink:href="#S"/><use transform="matrix(0.05,0,0,0.05,22.950000000000003,0)" xlink:href="#N"/><use transform="matrix(0.05,0,0,0.05,37.900000000000006,0)" xlink:href="#N"/><use transform="matrix(0.05,0,0,0.05,52.85,0)" xlink:href="#E"/><use transform="matrix(0.05,0,0,0.05,62.85,0)" xlink:href="#K"/><use transform="matrix(0.05,0,0,0.05,72.85000000000001,0)" xlink:href="#L"/></g><path fill="#333" d="M63-220v92h138v28H63V0H30v-248h175v28H63" id="an"/><g id="s"><use transform="matrix(0.05,0,0,0.05,0,0)" xlink:href="#an"/><use transform="matrix(0.05,0,0,0.05,10.950000000000001,0)" xlink:href="#H"/></g><path fill="#333" d="M-5 72V49h209v23H-5" id="ao"/><g id="t"><use transform="matrix(0.05,0,0,0.05,0,0)" xlink:href="#Q"/><use transform="matrix(0.05,0,0,0.05,10,0)" xlink:href="#S"/><use transform="matrix(0.05,0,0,0.05,20,0)" xlink:href="#D"/><use transform="matrix(0.05,0,0,0.05,29,0)" xlink:href="#L"/><use transform="matrix(0.05,0,0,0.05,34,0)" xlink:href="#ao"/><use transform="matrix(0.05,0,0,0.05,44,0)" xlink:href="#I"/><use transform="matrix(0.05,0,0,0.05,47.95,0)" xlink:href="#J"/></g><path d="M100-194c63 0 86 42 84 106H49c0 40 14 67 53 68 26 1 43-12 49-29l28 8c-11 28-37 45-77 45C44 4 14-33 15-96c1-61 26-98 85-98zm52 81c6-60-76-77-97-28-3 7-6 17-6 28h103" id="ap"/><g id="u"><use transform="matrix(0.05,0,0,0.05,0,0)" xlink:href="#Z"/><use transform="matrix(0.05,0,0,0.05,10,0)" xlink:href="#ab"/><use transform="matrix(0.05,0,0,0.05,19,0)" xlink:href="#ap"/><use transform="matrix(0.05,0,0,0.05,29,0)" xlink:href="#U"/><use transform="matrix(0.05,0,0,0.05,34.95,0)" xlink:href="#Y"/><use transform="matrix(0.05,0,0,0.05,44.95,0)" xlink:href="#ac"/><use transform="matrix(0.05,0,0,0.05,48.900000000000006,0)" xlink:href="#al"/></g><path fill="#333" d="M30 0v-248h33v221h125V0H30" id="aq"/><path fill="#333" d="M143 0L79-87 56-68V0H24v-261h32v163l83-92h37l-77 82L181 0h-38" id="ar"/><g id="v"><use transform="matrix(0.05,0,0,0.05,0,0)" xlink:href="#aq"/><use transform="matrix(0.05,0,0,0.05,10,0)" xlink:href="#I"/><use transform="matrix(0.05,0,0,0.05,13.949999999999998,0)" xlink:href="#ar"/><use transform="matrix(0.05,0,0,0.05,22.95,0)" xlink:href="#E"/></g><path fill="#333" d="M84 4C-5 8 30-112 23-190h32v120c0 31 7 50 39 49 72-2 45-101 50-169h31l1 190h-30c-1-10 1-25-2-33-11 22-28 36-60 37" id="as"/><g id="w"><use transform="matrix(0.05,0,0,0.05,0,0)" xlink:href="#as"/><use transform="matrix(0.05,0,0,0.05,10,0)" xlink:href="#D"/><use transform="matrix(0.05,0,0,0.05,19,0)" xlink:href="#E"/><use transform="matrix(0.05,0,0,0.05,29,0)" xlink:href="#F"/><use transform="matrix(0.05,0,0,0.05,34.95,0)" xlink:href="#ao"/><use transform="matrix(0.05,0,0,0.05,44.95,0)" xlink:href="#I"/><use transform="matrix(0.05,0,0,0.05,48.900000000000006,0)" xlink:href="#J"/></g><path fill="#333" d="M106-169C34-169 62-67 57 0H25v-261h32l-1 103c12-21 28-36 61-36 89 0 53 116 60 194h-32v-121c2-32-8-49-39-48" id="at"/><g id="x"><use transform="matrix(0.05,0,0,0.05,0,0)" xlink:href="#an"/><use transform="matrix(0.05,0,0,0.05,10.950000000000001,0)" xlink:href="#F"/><use transform="matrix(0.05,0,0,0.05,16.900000000000002,0)" xlink:href="#I"/><use transform="matrix(0.05,0,0,0.05,20.85,0)" xlink:href="#E"/><use transform="matrix(0.05,0,0,0.05,30.85,0)" xlink:href="#K"/><use transform="matrix(0.05,0,0,0.05,40.85,0)" xlink:href="#J"/><use transform="matrix(0.05,0,0,0.05,50.85,0)" xlink:href="#D"/><use transform="matrix(0.05,0,0,0.05,59.85,0)" xlink:href="#at"/><use transform="matrix(0.05,0,0,0.05,69.85,0)" xlink:href="#I"/><use transform="matrix(0.05,0,0,0.05,73.8,0)" xlink:href="#Q"/></g><g id="y"><use transform="matrix(0.05,0,0,0.05,0,0)" xlink:href="#an"/><use transform="matrix(0.05,0,0,0.05,10.950000000000001,0)" xlink:href="#H"/></g><g id="z"><use transform="matrix(0.05,0,0,0.05,0,0)" xlink:href="#D"/><use transform="matrix(0.05,0,0,0.05,9,0)" xlink:href="#E"/><use transform="matrix(0.05,0,0,0.05,19,0)" xlink:href="#K"/><use transform="matrix(0.05,0,0,0.05,29,0)" xlink:href="#J"/><use transform="matrix(0.05,0,0,0.05,39,0)" xlink:href="#E"/><use transform="matrix(0.05,0,0,0.05,49,0)" xlink:href="#F"/><use transform="matrix(0.05,0,0,0.05,54.95,0)" xlink:href="#ao"/><use transform="matrix(0.05,0,0,0.05,64.95,0)" xlink:href="#I"/><use transform="matrix(0.05,0,0,0.05,68.9,0)" xlink:href="#J"/></g><path fill="#333" d="M96-169c-40 0-48 33-48 73s9 75 48 75c24 0 41-14 43-38l32 2c-6 37-31 61-74 61-59 0-76-41-82-99-10-93 101-131 147-64 4 7 5 14 7 22l-32 3c-4-21-16-35-41-35" id="au"/><path fill="#333" d="M108 0H70L1-190h34L89-25l56-165h34" id="av"/><g id="A"><use transform="matrix(0.05,0,0,0.05,0,0)" xlink:href="#F"/><use transform="matrix(0.05,0,0,0.05,5.95,0)" xlink:href="#E"/><use transform="matrix(0.05,0,0,0.05,15.949999999999998,0)" xlink:href="#I"/><use transform="matrix(0.05,0,0,0.05,19.9,0)" xlink:href="#au"/><use transform="matrix(0.05,0,0,0.05,28.899999999999995,0)" xlink:href="#E"/><use transform="matrix(0.05,0,0,0.05,38.9,0)" xlink:href="#I"/><use transform="matrix(0.05,0,0,0.05,42.85,0)" xlink:href="#av"/><use transform="matrix(0.05,0,0,0.05,51.85,0)" xlink:href="#E"/><use transform="matrix(0.05,0,0,0.05,61.85,0)" xlink:href="#F"/><use transform="matrix(0.05,0,0,0.05,67.8,0)" xlink:href="#ao"/><use transform="matrix(0.05,0,0,0.05,77.8,0)" xlink:href="#I"/><use transform="matrix(0.05,0,0,0.05,81.75,0)" xlink:href="#J"/></g><g id="B"><use transform="matrix(0.05,0,0,0.05,0,0)" xlink:href="#ab"/><use transform="matrix(0.05,0,0,0.05,9,0)" xlink:href="#X"/><use transform="matrix(0.05,0,0,0.05,14,0)" xlink:href="#V"/><use transform="matrix(0.05,0,0,0.05,24,0)" xlink:href="#X"/><use transform="matrix(0.05,0,0,0.05,29,0)" xlink:href="#Z"/><use transform="matrix(0.05,0,0,0.05,39,0)" xlink:href="#ab"/></g></defs></g></svg>