<svg xmlns="http://www.w3.org/2000/svg" xmlns:xlink="http://www.w3.org/1999/xlink" xmlns:lucid="lucid" width="627.5" height="618"><g transform="translate(-233.5 -235)" lucid:page-tab-id="YGcM5DNywbTK"><path d="M0 0h1360v1760H0z" fill="#fff"/><g filter="url(#a)"><path d="M280 320h200v168H280z" fill="#fff"/><path d="M280 320h200v168H280zM280 360h200M340 360v128" stroke="#666" fill="none"/><use xlink:href="#b" transform="matrix(1,0,0,1,290,320) translate(68.02345679012346 24.711111111111112)"/><use xlink:href="#c" transform="matrix(1,0,0,1,285,362.5) translate(10.325925925925922 18.211111111111112)"/><use xlink:href="#d" transform="matrix(1,0,0,1,345,362.5) translate(51.64382716049383 18.211111111111112)"/><use xlink:href="#e" transform="matrix(1,0,0,1,345,394.5) translate(38.70246913580247 18.211111111111112)"/><use xlink:href="#f" transform="matrix(1,0,0,1,345,426.5) translate(23.600617283950612 18.211111111111112)"/><use xlink:href="#g" transform="matrix(1,0,0,1,345,458.5) translate(40.020370370370365 18.211111111111112)"/></g><g filter="url(#h)"><path d="M640 256h200v136H640z" fill="#fff"/><path d="M640 256h200v136H640zM640 296h200M700 296v96" stroke="#666" fill="none"/><use xlink:href="#i" transform="matrix(1,0,0,1,650,256) translate(63.248765432098764 24.711111111111112)"/><use xlink:href="#j" transform="matrix(1,0,0,1,645,298.5) translate(9.029629629629627 18.211111111111112)"/><use xlink:href="#d" transform="matrix(1,0,0,1,705,298.5) translate(51.64382716049383 18.211111111111112)"/><use xlink:href="#k" transform="matrix(1,0,0,1,645,330.5) translate(9.48333333333333 18.211111111111112)"/><use xlink:href="#l" transform="matrix(1,0,0,1,705,330.5) translate(25.761111111111106 18.211111111111112)"/><use xlink:href="#m" transform="matrix(1,0,0,1,705,362.5) translate(39.56666666666666 18.211111111111112)"/></g><path d="M500.5 375.86H550V344h70.1" stroke="#666" fill="none"/><path d="M500.5 385.86v-20M480.5 375.86h20M639.28 354l-20-10 20-10M639.28 344h-20" stroke="#666" fill="#fff"/><g filter="url(#a)"><path d="M640 460h200v168H640z" fill="#fff"/><path d="M640 460h200v168H640zM640 500h200M700 500v128" stroke="#666" fill="none"/><use xlink:href="#n" transform="matrix(1,0,0,1,650,460) translate(44.32283950617284 24.711111111111112)"/><use xlink:href="#j" transform="matrix(1,0,0,1,645,502.5) translate(9.029629629629627 18.211111111111112)"/><use xlink:href="#d" transform="matrix(1,0,0,1,705,502.5) translate(51.64382716049383 18.211111111111112)"/><use xlink:href="#m" transform="matrix(1,0,0,1,705,534.5) translate(39.56666666666666 18.211111111111112)"/><use xlink:href="#k" transform="matrix(1,0,0,1,645,566.5) translate(9.48333333333333 18.211111111111112)"/><use xlink:href="#o" transform="matrix(1,0,0,1,705,566.5) translate(26.1716049382716 18.211111111111112)"/><use xlink:href="#k" transform="matrix(1,0,0,1,645,598.5) translate(9.48333333333333 18.211111111111112)"/><use xlink:href="#l" transform="matrix(1,0,0,1,705,598.5) translate(25.761111111111106 18.211111111111112)"/></g><path d="M600 580h-.5V312h20" stroke="#666" fill="none"/><path d="M639.28 590l-20-10 20-10M639.28 580h-20M619.28 580c0 5.52-4.48 10-10 10-5.53 0-10-4.48-10-10s4.47-10 10-10c5.52 0 10 4.48 10 10M619.5 302v20M639.5 312h-20" stroke="#666" fill="#fff"/><path d="M620.1 612H560V375.86h-59.5" stroke="#666" fill="none"/><path d="M639.28 622l-20-10 20-10M639.28 612h-20M500.5 385.86v-20M480.5 375.86h20" stroke="#666" fill="#fff"/><g filter="url(#h)"><path d="M640 696h200v136H640z" fill="#fff"/><path d="M640 696h200v136H640zM640 736h200M700 736v96" stroke="#666" fill="none"/><use xlink:href="#p" transform="matrix(1,0,0,1,650,696) translate(62.36296296296297 24.711111111111112)"/><use xlink:href="#k" transform="matrix(1,0,0,1,645,738.5) translate(9.48333333333333 18.211111111111112)"/><use xlink:href="#o" transform="matrix(1,0,0,1,705,738.5) translate(26.1716049382716 18.211111111111112)"/><use xlink:href="#j" transform="matrix(1,0,0,1,645,770.5) translate(9.029629629629627 18.211111111111112)"/><use xlink:href="#l" transform="matrix(1,0,0,1,705,770.5) translate(25.761111111111106 18.211111111111112)"/><use xlink:href="#q" transform="matrix(1,0,0,1,645,802.5) translate(6.004938271604935 18.211111111111112)"/><use xlink:href="#r" transform="matrix(1,0,0,1,705,802.5) translate(42.61296296296296 18.211111111111112)"/></g><path d="M600 751.94h-.5v-440h20" stroke="#666" fill="none"/><path d="M639.28 761.94l-20-10 20-10M639.28 751.94h-20M619.28 751.94c0 5.52-4.48 10-10 10-5.53 0-10-4.48-10-10s4.47-10 10-10c5.52 0 10 4.48 10 10M619.5 301.94v20M639.5 311.94h-20" stroke="#666" fill="#fff"/><path d="M619.5 784.1H560V375.86h-59.5" stroke="#666" fill="none"/><path d="M629.5 774.1v20M639.5 784.1h-20M619.5 774.1v20M500.5 385.86v-20M480.5 375.86h20" stroke="#666" fill="#fff"/><g filter="url(#h)"><path d="M280 696h200v136H280z" fill="#fff"/><path d="M280 696h200v136H280zM280 736h200M340 736v96" stroke="#666" fill="none"/><use xlink:href="#s" transform="matrix(1,0,0,1,290,696) translate(50.35061728395062 24.711111111111112)"/><use xlink:href="#k" transform="matrix(1,0,0,1,285,738.5) translate(9.48333333333333 18.211111111111112)"/><use xlink:href="#t" transform="matrix(1,0,0,1,345,738.5) translate(14.980246913580245 18.211111111111112)"/><use xlink:href="#k" transform="matrix(1,0,0,1,285,770.5) translate(9.48333333333333 18.211111111111112)"/><use xlink:href="#u" transform="matrix(1,0,0,1,345,770.5) translate(7.634567901234568 18.211111111111112)"/><use xlink:href="#v" transform="matrix(1,0,0,1,345,802.5) translate(29.952469135802463 18.211111111111112)"/></g><path d="M259.5 751.94h-20V375.86h20" stroke="#666" fill="none"/><path d="M279.28 761.94l-20-10 20-10M279.28 751.94h-20M259.28 741.94v20M259.5 365.86v20M279.5 375.86h-20" stroke="#666" fill="#fff"/><path d="M259.5 784.1h-20V375.86h20" stroke="#666" fill="none"/><path d="M279.28 794.1l-20-10 20-10M279.28 784.1h-20M259.28 774.1v20M259.5 365.86v20M279.5 375.86h-20" stroke="#666" fill="#fff"/><defs><path fill="#666" d="M232-93c-1 65-40 97-104 97C67 4 28-28 28-90v-158h33c8 89-33 224 67 224 102 0 64-133 71-224h33v155" id="w"/><path fill="#666" d="M135-143c-3-34-86-38-87 0 15 53 115 12 119 90S17 21 10-45l28-5c4 36 97 45 98 0-10-56-113-15-118-90-4-57 82-63 122-42 12 7 21 19 24 35" id="x"/><path fill="#666" d="M100-194c63 0 86 42 84 106H49c0 40 14 67 53 68 26 1 43-12 49-29l28 8c-11 28-37 45-77 45C44 4 14-33 15-96c1-61 26-98 85-98zm52 81c6-60-76-77-97-28-3 7-6 17-6 28h103" id="y"/><path fill="#666" d="M114-163C36-179 61-72 57 0H25l-1-190h30c1 12-1 29 2 39 6-27 23-49 58-41v29" id="z"/><g id="b"><use transform="matrix(0.04320987654320988,0,0,0.04320987654320988,0,0)" xlink:href="#w"/><use transform="matrix(0.04320987654320988,0,0,0.04320987654320988,11.19135802469136,0)" xlink:href="#x"/><use transform="matrix(0.04320987654320988,0,0,0.04320987654320988,18.96913580246914,0)" xlink:href="#y"/><use transform="matrix(0.04320987654320988,0,0,0.04320987654320988,27.611111111111114,0)" xlink:href="#z"/></g><path fill="#666" d="M30-248c87 1 191-15 191 75 0 78-77 80-158 76V0H30v-248zm33 125c57 0 124 11 124-50 0-59-68-47-124-48v98" id="A"/><path fill="#666" d="M143 0L79-87 56-68V0H24v-261h32v163l83-92h37l-77 82L181 0h-38" id="B"/><g id="c"><use transform="matrix(0.04320987654320988,0,0,0.04320987654320988,0,0)" xlink:href="#A"/><use transform="matrix(0.04320987654320988,0,0,0.04320987654320988,10.370370370370372,0)" xlink:href="#B"/></g><path fill="#666" d="M33 0v-248h34V0H33" id="C"/><path fill="#666" d="M30-248c118-7 216 8 213 122C240-48 200 0 122 0H30v-248zM63-27c89 8 146-16 146-99s-60-101-146-95v194" id="D"/><g id="d"><use transform="matrix(0.04320987654320988,0,0,0.04320987654320988,0,0)" xlink:href="#C"/><use transform="matrix(0.04320987654320988,0,0,0.04320987654320988,4.320987654320988,0)" xlink:href="#D"/></g><path fill="#666" d="M190 0L58-211 59 0H30v-248h39L202-35l-2-213h31V0h-41" id="E"/><path fill="#666" d="M141-36C126-15 110 5 73 4 37 3 15-17 15-53c-1-64 63-63 125-63 3-35-9-54-41-54-24 1-41 7-42 31l-33-3c5-37 33-52 76-52 45 0 72 20 72 64v82c-1 20 7 32 28 27v20c-31 9-61-2-59-35zM48-53c0 20 12 33 32 33 41-3 63-29 60-74-43 2-92-5-92 41" id="F"/><path fill="#666" d="M210-169c-67 3-38 105-44 169h-31v-121c0-29-5-50-35-48C34-165 62-65 56 0H25l-1-190h30c1 10-1 24 2 32 10-44 99-50 107 0 11-21 27-35 58-36 85-2 47 119 55 194h-31v-121c0-29-5-49-35-48" id="G"/><g id="e"><use transform="matrix(0.04320987654320988,0,0,0.04320987654320988,0,0)" xlink:href="#E"/><use transform="matrix(0.04320987654320988,0,0,0.04320987654320988,11.19135802469136,0)" xlink:href="#F"/><use transform="matrix(0.04320987654320988,0,0,0.04320987654320988,19.833333333333336,0)" xlink:href="#G"/><use transform="matrix(0.04320987654320988,0,0,0.04320987654320988,32.75308641975309,0)" xlink:href="#y"/></g><path fill="#666" d="M117-194c89-4 53 116 60 194h-32v-121c0-31-8-49-39-48C34-167 62-67 57 0H25l-1-190h30c1 10-1 24 2 32 11-22 29-35 61-36" id="H"/><g id="f"><use transform="matrix(0.04320987654320988,0,0,0.04320987654320988,0,0)" xlink:href="#w"/><use transform="matrix(0.04320987654320988,0,0,0.04320987654320988,11.19135802469136,0)" xlink:href="#x"/><use transform="matrix(0.04320987654320988,0,0,0.04320987654320988,18.96913580246914,0)" xlink:href="#y"/><use transform="matrix(0.04320987654320988,0,0,0.04320987654320988,27.611111111111114,0)" xlink:href="#z"/><use transform="matrix(0.04320987654320988,0,0,0.04320987654320988,32.75308641975309,0)" xlink:href="#H"/><use transform="matrix(0.04320987654320988,0,0,0.04320987654320988,41.39506172839506,0)" xlink:href="#F"/><use transform="matrix(0.04320987654320988,0,0,0.04320987654320988,50.037037037037045,0)" xlink:href="#G"/><use transform="matrix(0.04320987654320988,0,0,0.04320987654320988,62.956790123456784,0)" xlink:href="#y"/></g><path fill="#666" d="M30 0v-248h187v28H63v79h144v27H63v87h162V0H30" id="I"/><path fill="#666" d="M24-231v-30h32v30H24zM24 0v-190h32V0H24" id="J"/><path fill="#666" d="M24 0v-261h32V0H24" id="K"/><g id="g"><use transform="matrix(0.04320987654320988,0,0,0.04320987654320988,0,0)" xlink:href="#I"/><use transform="matrix(0.04320987654320988,0,0,0.04320987654320988,10.370370370370372,0)" xlink:href="#G"/><use transform="matrix(0.04320987654320988,0,0,0.04320987654320988,23.290123456790127,0)" xlink:href="#F"/><use transform="matrix(0.04320987654320988,0,0,0.04320987654320988,31.9320987654321,0)" xlink:href="#J"/><use transform="matrix(0.04320987654320988,0,0,0.04320987654320988,35.345679012345684,0)" xlink:href="#K"/></g><filter id="a" filterUnits="objectBoundingBox" x="-.05" y="-.02" width="1.1" height="1.12"><feOffset result="offOut" in="SourceAlpha" dy="6"/><feGaussianBlur result="blurOut" in="offOut" stdDeviation="5"/><feColorMatrix result="colorOut" in="blurOut" values="0 0 0 0 0 0 0 0 0 0 0 0 0 0 0 0 0 0 0.16862745098039217 0"/><feBlend in="SourceGraphic" in2="colorOut"/></filter><path fill="#666" d="M140-251c81 0 123 46 123 126C263-46 219 4 140 4 59 4 17-45 17-125s42-126 123-126zm0 227c63 0 89-41 89-101s-29-99-89-99c-61 0-89 39-89 99S79-25 140-24" id="L"/><path fill="#666" d="M185-189c-5-48-123-54-124 2 14 75 158 14 163 119 3 78-121 87-175 55-17-10-28-26-33-46l33-7c5 56 141 63 141-1 0-78-155-14-162-118-5-82 145-84 179-34 5 7 8 16 11 25" id="M"/><path fill="#666" d="M127-220V0H93v-220H8v-28h204v28h-85" id="N"/><g id="i"><use transform="matrix(0.04320987654320988,0,0,0.04320987654320988,0,0)" xlink:href="#A"/><use transform="matrix(0.04320987654320988,0,0,0.04320987654320988,10.370370370370372,0)" xlink:href="#L"/><use transform="matrix(0.04320987654320988,0,0,0.04320987654320988,22.46913580246914,0)" xlink:href="#M"/><use transform="matrix(0.04320987654320988,0,0,0.04320987654320988,32.83950617283951,0)" xlink:href="#N"/></g><path fill="#666" d="M194 0L95-120 63-95V0H30v-248h33v124l119-124h40L117-140 236 0h-42" id="O"/><g id="j"><use transform="matrix(0.04320987654320988,0,0,0.04320987654320988,0,0)" xlink:href="#A"/><use transform="matrix(0.04320987654320988,0,0,0.04320987654320988,10.370370370370372,0)" xlink:href="#O"/></g><path fill="#666" d="M63-220v92h138v28H63V0H30v-248h175v28H63" id="P"/><g id="k"><use transform="matrix(0.04320987654320988,0,0,0.04320987654320988,0,0)" xlink:href="#P"/><use transform="matrix(0.04320987654320988,0,0,0.04320987654320988,9.462962962962964,0)" xlink:href="#O"/></g><path fill="#666" d="M233-177c-1 41-23 64-60 70L243 0h-38l-65-103H63V0H30v-248c88 3 205-21 203 71zM63-129c60-2 137 13 137-47 0-61-80-42-137-45v92" id="Q"/><path fill="#666" d="M-5 72V49h209v23H-5" id="R"/><g id="l"><use transform="matrix(0.04320987654320988,0,0,0.04320987654320988,0,0)" xlink:href="#w"/><use transform="matrix(0.04320987654320988,0,0,0.04320987654320988,11.19135802469136,0)" xlink:href="#M"/><use transform="matrix(0.04320987654320988,0,0,0.04320987654320988,21.56172839506173,0)" xlink:href="#I"/><use transform="matrix(0.04320987654320988,0,0,0.04320987654320988,31.9320987654321,0)" xlink:href="#Q"/><use transform="matrix(0.04320987654320988,0,0,0.04320987654320988,43.12345679012346,0)" xlink:href="#R"/><use transform="matrix(0.04320987654320988,0,0,0.04320987654320988,51.76543209876544,0)" xlink:href="#C"/><use transform="matrix(0.04320987654320988,0,0,0.04320987654320988,56.086419753086425,0)" xlink:href="#D"/></g><path fill="#666" d="M195 0l-74-108L45 0H8l94-129-87-119h37l69 98 67-98h37l-84 118L233 0h-38" id="S"/><g id="m"><use transform="matrix(0.04320987654320988,0,0,0.04320987654320988,0,0)" xlink:href="#N"/><use transform="matrix(0.04320987654320988,0,0,0.04320987654320988,9.462962962962964,0)" xlink:href="#I"/><use transform="matrix(0.04320987654320988,0,0,0.04320987654320988,19.833333333333336,0)" xlink:href="#S"/><use transform="matrix(0.04320987654320988,0,0,0.04320987654320988,30.203703703703713,0)" xlink:href="#N"/></g><filter id="h" filterUnits="objectBoundingBox" x="-.05" y="-.03" width="1.1" height="1.15"><feOffset result="offOut" in="SourceAlpha" dy="6"/><feGaussianBlur result="blurOut" in="offOut" stdDeviation="5"/><feColorMatrix result="colorOut" in="blurOut" values="0 0 0 0 0 0 0 0 0 0 0 0 0 0 0 0 0 0 0.16862745098039217 0"/><feBlend in="SourceGraphic" in2="colorOut"/></filter><path fill="#666" d="M212-179c-10-28-35-45-73-45-59 0-87 40-87 99 0 60 29 101 89 101 43 0 62-24 78-52l27 14C228-24 195 4 139 4 59 4 22-46 18-125c-6-104 99-153 187-111 19 9 31 26 39 46" id="T"/><path fill="#666" d="M240 0l2-218c-23 76-54 145-80 218h-23L58-218 59 0H30v-248h44l77 211c21-75 51-140 76-211h43V0h-30" id="U"/><g id="n"><use transform="matrix(0.04320987654320988,0,0,0.04320987654320988,0,0)" xlink:href="#T"/><use transform="matrix(0.04320987654320988,0,0,0.04320987654320988,11.19135802469136,0)" xlink:href="#L"/><use transform="matrix(0.04320987654320988,0,0,0.04320987654320988,23.290123456790127,0)" xlink:href="#U"/><use transform="matrix(0.04320987654320988,0,0,0.04320987654320988,36.20987654320988,0)" xlink:href="#U"/><use transform="matrix(0.04320987654320988,0,0,0.04320987654320988,49.12962962962963,0)" xlink:href="#I"/><use transform="matrix(0.04320987654320988,0,0,0.04320987654320988,59.50000000000001,0)" xlink:href="#E"/><use transform="matrix(0.04320987654320988,0,0,0.04320987654320988,70.69135802469137,0)" xlink:href="#N"/></g><g id="o"><use transform="matrix(0.04320987654320988,0,0,0.04320987654320988,0,0)" xlink:href="#A"/><use transform="matrix(0.04320987654320988,0,0,0.04320987654320988,10.370370370370372,0)" xlink:href="#L"/><use transform="matrix(0.04320987654320988,0,0,0.04320987654320988,22.46913580246914,0)" xlink:href="#M"/><use transform="matrix(0.04320987654320988,0,0,0.04320987654320988,32.83950617283951,0)" xlink:href="#N"/><use transform="matrix(0.04320987654320988,0,0,0.04320987654320988,42.302469135802475,0)" xlink:href="#R"/><use transform="matrix(0.04320987654320988,0,0,0.04320987654320988,50.94444444444445,0)" xlink:href="#C"/><use transform="matrix(0.04320987654320988,0,0,0.04320987654320988,55.26543209876544,0)" xlink:href="#D"/></g><path fill="#666" d="M30 0v-248h33v221h125V0H30" id="V"/><g id="p"><use transform="matrix(0.04320987654320988,0,0,0.04320987654320988,0,0)" xlink:href="#V"/><use transform="matrix(0.04320987654320988,0,0,0.04320987654320988,8.641975308641976,0)" xlink:href="#C"/><use transform="matrix(0.04320987654320988,0,0,0.04320987654320988,12.962962962962964,0)" xlink:href="#O"/><use transform="matrix(0.04320987654320988,0,0,0.04320987654320988,23.333333333333336,0)" xlink:href="#I"/><use transform="matrix(0.04320987654320988,0,0,0.04320987654320988,33.70370370370371,0)" xlink:href="#M"/></g><path fill="#666" d="M179-190L93 31C79 59 56 82 12 73V49c39 6 53-20 64-50L1-190h34L92-34l54-156h33" id="W"/><g id="q"><use transform="matrix(0.04320987654320988,0,0,0.04320987654320988,0,0)" xlink:href="#O"/><use transform="matrix(0.04320987654320988,0,0,0.04320987654320988,10.370370370370372,0)" xlink:href="#y"/><use transform="matrix(0.04320987654320988,0,0,0.04320987654320988,19.01234567901235,0)" xlink:href="#W"/></g><path fill="#666" d="M85-194c31 0 48 13 60 33l-1-100h32l1 261h-30c-2-10 0-23-3-31C134-8 116 4 85 4 32 4 16-35 15-94c0-66 23-100 70-100zm9 24c-40 0-46 34-46 75 0 40 6 74 45 74 42 0 51-32 51-76 0-42-9-74-50-73" id="X"/><g id="r"><use transform="matrix(0.04320987654320988,0,0,0.04320987654320988,0,0)" xlink:href="#P"/><use transform="matrix(0.04320987654320988,0,0,0.04320987654320988,9.462962962962964,0)" xlink:href="#J"/><use transform="matrix(0.04320987654320988,0,0,0.04320987654320988,12.876543209876544,0)" xlink:href="#y"/><use transform="matrix(0.04320987654320988,0,0,0.04320987654320988,21.51851851851852,0)" xlink:href="#K"/><use transform="matrix(0.04320987654320988,0,0,0.04320987654320988,24.9320987654321,0)" xlink:href="#X"/></g><g id="s"><use transform="matrix(0.04320987654320988,0,0,0.04320987654320988,0,0)" xlink:href="#P"/><use transform="matrix(0.04320987654320988,0,0,0.04320987654320988,9.462962962962964,0)" xlink:href="#Q"/><use transform="matrix(0.04320987654320988,0,0,0.04320987654320988,20.654320987654323,0)" xlink:href="#C"/><use transform="matrix(0.04320987654320988,0,0,0.04320987654320988,24.97530864197531,0)" xlink:href="#I"/><use transform="matrix(0.04320987654320988,0,0,0.04320987654320988,35.345679012345684,0)" xlink:href="#E"/><use transform="matrix(0.04320987654320988,0,0,0.04320987654320988,46.537037037037045,0)" xlink:href="#D"/><use transform="matrix(0.04320987654320988,0,0,0.04320987654320988,57.72839506172841,0)" xlink:href="#M"/></g><g id="t"><use transform="matrix(0.04320987654320988,0,0,0.04320987654320988,0,0)" xlink:href="#M"/><use transform="matrix(0.04320987654320988,0,0,0.04320987654320988,10.370370370370372,0)" xlink:href="#I"/><use transform="matrix(0.04320987654320988,0,0,0.04320987654320988,20.740740740740744,0)" xlink:href="#E"/><use transform="matrix(0.04320987654320988,0,0,0.04320987654320988,31.9320987654321,0)" xlink:href="#D"/><use transform="matrix(0.04320987654320988,0,0,0.04320987654320988,43.12345679012346,0)" xlink:href="#I"/><use transform="matrix(0.04320987654320988,0,0,0.04320987654320988,53.49382716049383,0)" xlink:href="#Q"/><use transform="matrix(0.04320987654320988,0,0,0.04320987654320988,64.68518518518519,0)" xlink:href="#R"/><use transform="matrix(0.04320987654320988,0,0,0.04320987654320988,73.32716049382717,0)" xlink:href="#C"/><use transform="matrix(0.04320987654320988,0,0,0.04320987654320988,77.64814814814815,0)" xlink:href="#D"/></g><path fill="#666" d="M137 0h-34L2-248h35l83 218 83-218h36" id="Y"/><g id="u"><use transform="matrix(0.04320987654320988,0,0,0.04320987654320988,0,0)" xlink:href="#Q"/><use transform="matrix(0.04320987654320988,0,0,0.04320987654320988,11.19135802469136,0)" xlink:href="#I"/><use transform="matrix(0.04320987654320988,0,0,0.04320987654320988,21.56172839506173,0)" xlink:href="#T"/><use transform="matrix(0.04320987654320988,0,0,0.04320987654320988,32.75308641975309,0)" xlink:href="#I"/><use transform="matrix(0.04320987654320988,0,0,0.04320987654320988,43.12345679012346,0)" xlink:href="#C"/><use transform="matrix(0.04320987654320988,0,0,0.04320987654320988,47.44444444444445,0)" xlink:href="#Y"/><use transform="matrix(0.04320987654320988,0,0,0.04320987654320988,57.814814814814824,0)" xlink:href="#I"/><use transform="matrix(0.04320987654320988,0,0,0.04320987654320988,68.18518518518519,0)" xlink:href="#Q"/><use transform="matrix(0.04320987654320988,0,0,0.04320987654320988,79.37654320987654,0)" xlink:href="#R"/><use transform="matrix(0.04320987654320988,0,0,0.04320987654320988,88.01851851851852,0)" xlink:href="#C"/><use transform="matrix(0.04320987654320988,0,0,0.04320987654320988,92.33950617283952,0)" xlink:href="#D"/></g><path fill="#666" d="M205 0l-28-72H64L36 0H1l101-248h38L239 0h-34zm-38-99l-47-123c-12 45-31 82-46 123h93" id="Z"/><g id="v"><use transform="matrix(0.04320987654320988,0,0,0.04320987654320988,0,0)" xlink:href="#M"/><use transform="matrix(0.04320987654320988,0,0,0.04320987654320988,10.370370370370372,0)" xlink:href="#N"/><use transform="matrix(0.04320987654320988,0,0,0.04320987654320988,18.66666666666667,0)" xlink:href="#Z"/><use transform="matrix(0.04320987654320988,0,0,0.04320987654320988,27.870370370370374,0)" xlink:href="#N"/><use transform="matrix(0.04320987654320988,0,0,0.04320987654320988,37.333333333333336,0)" xlink:href="#w"/><use transform="matrix(0.04320987654320988,0,0,0.04320987654320988,48.5246913580247,0)" xlink:href="#M"/></g></defs></g></svg>