<svg xmlns="http://www.w3.org/2000/svg" xmlns:xlink="http://www.w3.org/1999/xlink" xmlns:lucid="lucid" width="653" height="650"><g transform="translate(-233.5 -235)" lucid:page-tab-id="YGcM5DNywbTK"><path d="M0 0h1360v1760H0z" fill="#fff"/><g filter="url(#a)"><path d="M280 256h200v200H280z" fill="#fff"/><path d="M280 256h200v200H280zM280 296h200M340 296v160" stroke="#666" fill="none"/><use xlink:href="#b" transform="matrix(1,0,0,1,290,256) translate(68.02345679012346 24.711111111111112)"/><use xlink:href="#c" transform="matrix(1,0,0,1,285,298.5) translate(10.325925925925922 18.211111111111112)"/><use xlink:href="#d" transform="matrix(1,0,0,1,345,298.5) translate(51.64382716049383 18.211111111111112)"/><use xlink:href="#e" transform="matrix(1,0,0,1,345,330.5) translate(38.70246913580247 18.211111111111112)"/><use xlink:href="#f" transform="matrix(1,0,0,1,345,362.5) translate(23.600617283950612 18.211111111111112)"/><use xlink:href="#g" transform="matrix(1,0,0,1,345,394.5) translate(40.020370370370365 18.211111111111112)"/><use xlink:href="#h" transform="matrix(1,0,0,1,345,426.5) translate(13.683950617283948 18.211111111111112)"/><use xlink:href="#i" transform="matrix(1,0,0,1,345,426.5) translate(61.949382716049385 18.211111111111112)"/></g><g filter="url(#j)"><path d="M640 256h200v136H640z" fill="#fff"/><path d="M640 256h200v136H640zM640 296h200M700 296v96" stroke="#666" fill="none"/><use xlink:href="#k" transform="matrix(1,0,0,1,650,256) translate(63.248765432098764 24.711111111111112)"/><use xlink:href="#l" transform="matrix(1,0,0,1,645,298.5) translate(9.029629629629627 18.211111111111112)"/><use xlink:href="#d" transform="matrix(1,0,0,1,705,298.5) translate(51.64382716049383 18.211111111111112)"/><use xlink:href="#m" transform="matrix(1,0,0,1,645,330.5) translate(9.48333333333333 18.211111111111112)"/><use xlink:href="#n" transform="matrix(1,0,0,1,705,330.5) translate(32.220987654320986 18.211111111111112)"/><use xlink:href="#o" transform="matrix(1,0,0,1,705,362.5) translate(45.16234567901235 18.211111111111112)"/></g><path d="M500.5 312H550v32h70.1" stroke="#666" fill="none"/><path d="M500.5 322v-20M480.5 312h20M639.28 354l-20-10 20-10M639.28 344h-20" stroke="#666" fill="#fff"/><g filter="url(#p)"><path d="M640 460h200v168H640z" fill="#fff"/><path d="M640 460h200v168H640zM640 500h200M700 500v128" stroke="#666" fill="none"/><use xlink:href="#q" transform="matrix(1,0,0,1,650,460) translate(44.32283950617284 24.711111111111112)"/><use xlink:href="#l" transform="matrix(1,0,0,1,645,502.5) translate(9.029629629629627 18.211111111111112)"/><use xlink:href="#d" transform="matrix(1,0,0,1,705,502.5) translate(51.64382716049383 18.211111111111112)"/><use xlink:href="#o" transform="matrix(1,0,0,1,705,534.5) translate(45.16234567901235 18.211111111111112)"/><use xlink:href="#m" transform="matrix(1,0,0,1,645,566.5) translate(9.48333333333333 18.211111111111112)"/><use xlink:href="#r" transform="matrix(1,0,0,1,705,566.5) translate(33.04197530864197 18.211111111111112)"/><use xlink:href="#m" transform="matrix(1,0,0,1,645,598.5) translate(9.48333333333333 18.211111111111112)"/><use xlink:href="#n" transform="matrix(1,0,0,1,705,598.5) translate(32.220987654320986 18.211111111111112)"/></g><path d="M620.1 612H560V312h-59.5" stroke="#666" fill="none"/><path d="M639.28 622l-20-10 20-10M639.28 612h-20M500.5 322v-20M480.5 312h20" stroke="#666" fill="#fff"/><g filter="url(#p)"><path d="M640 696h200v168H640z" fill="#fff"/><path d="M640 696h200v168H640zM640 736h200M700 736v128" stroke="#666" fill="none"/><use xlink:href="#s" transform="matrix(1,0,0,1,650,696) translate(62.36296296296297 24.711111111111112)"/><use xlink:href="#l" transform="matrix(1,0,0,1,645,738.5) translate(9.029629629629627 18.211111111111112)"/><use xlink:href="#d" transform="matrix(1,0,0,1,705,738.5) translate(51.64382716049383 18.211111111111112)"/><use xlink:href="#m" transform="matrix(1,0,0,1,645,770.5) translate(9.48333333333333 18.211111111111112)"/><use xlink:href="#r" transform="matrix(1,0,0,1,705,770.5) translate(33.04197530864197 18.211111111111112)"/><use xlink:href="#m" transform="matrix(1,0,0,1,645,802.5) translate(9.48333333333333 18.211111111111112)"/><use xlink:href="#n" transform="matrix(1,0,0,1,705,802.5) translate(32.220987654320986 18.211111111111112)"/><use xlink:href="#m" transform="matrix(1,0,0,1,645,834.5) translate(9.48333333333333 18.211111111111112)"/><use xlink:href="#t" transform="matrix(1,0,0,1,705,834.5) translate(14.958641975308637 18.211111111111112)"/></g><path d="M619.5 816H560V312h-59.5" stroke="#666" fill="none"/><path d="M629.5 806v20M639.5 816h-20M619.5 806v20M500.5 322v-20M480.5 312h20" stroke="#666" fill="#fff"/><g filter="url(#p)"><path d="M280 696h200v168H280z" fill="#fff"/><path d="M280 696h200v168H280zM280 736h200M340 736v128" stroke="#666" fill="none"/><use xlink:href="#u" transform="matrix(1,0,0,1,290,696) translate(50.35061728395062 24.711111111111112)"/><use xlink:href="#l" transform="matrix(1,0,0,1,285,738.5) translate(9.029629629629627 18.211111111111112)"/><use xlink:href="#d" transform="matrix(1,0,0,1,345,738.5) translate(51.64382716049383 18.211111111111112)"/><use xlink:href="#m" transform="matrix(1,0,0,1,285,770.5) translate(9.48333333333333 18.211111111111112)"/><use xlink:href="#v" transform="matrix(1,0,0,1,345,770.5) translate(23.557407407407403 18.211111111111112)"/><use xlink:href="#w" transform="matrix(1,0,0,1,345,802.5) translate(17.983333333333327 18.211111111111112)"/><use xlink:href="#x" transform="matrix(1,0,0,1,345,834.5) translate(37.36296296296296 18.211111111111112)"/></g><path d="M259.5 784h-20V312h20" stroke="#666" fill="none"/><path d="M279.28 794l-20-10 20-10M279.28 784h-20M259.28 774v20M259.5 302v20M279.5 312h-20" stroke="#666" fill="#fff"/><path d="M860.5 312h20v472h-20.6" stroke="#666" fill="none"/><path d="M860.5 322v-20M840.5 312h20M840.72 774l20 10-20 10M840.72 784h20" stroke="#666" fill="#fff"/><path d="M860.5 515.86h20v326.8h-20.6" stroke="#666" fill="none"/><path d="M860.5 525.86v-20M840.5 515.86h20M840.72 832.67l20 10-20 10M840.72 842.67h20" stroke="#666" fill="#fff"/><path d="M860.5 311.94h20v270.73h-20.6" stroke="#666" fill="none"/><path d="M860.5 321.94v-20M840.5 311.94h20M840.72 572.67l20 10-20 10M840.72 582.67h20" stroke="#666" fill="#fff"/><path d="M259.5 311.78h-20v504.4h20.6" stroke="#666" fill="none"/><path d="M259.5 301.78v20M279.5 311.78h-20M279.28 826.18l-20-10 20-10M279.28 816.18h-20" stroke="#666" fill="#fff"/><defs><path fill="#666" d="M232-93c-1 65-40 97-104 97C67 4 28-28 28-90v-158h33c8 89-33 224 67 224 102 0 64-133 71-224h33v155" id="y"/><path fill="#666" d="M135-143c-3-34-86-38-87 0 15 53 115 12 119 90S17 21 10-45l28-5c4 36 97 45 98 0-10-56-113-15-118-90-4-57 82-63 122-42 12 7 21 19 24 35" id="z"/><path fill="#666" d="M100-194c63 0 86 42 84 106H49c0 40 14 67 53 68 26 1 43-12 49-29l28 8c-11 28-37 45-77 45C44 4 14-33 15-96c1-61 26-98 85-98zm52 81c6-60-76-77-97-28-3 7-6 17-6 28h103" id="A"/><path fill="#666" d="M114-163C36-179 61-72 57 0H25l-1-190h30c1 12-1 29 2 39 6-27 23-49 58-41v29" id="B"/><g id="b"><use transform="matrix(0.04320987654320988,0,0,0.04320987654320988,0,0)" xlink:href="#y"/><use transform="matrix(0.04320987654320988,0,0,0.04320987654320988,11.19135802469136,0)" xlink:href="#z"/><use transform="matrix(0.04320987654320988,0,0,0.04320987654320988,18.96913580246914,0)" xlink:href="#A"/><use transform="matrix(0.04320987654320988,0,0,0.04320987654320988,27.611111111111114,0)" xlink:href="#B"/></g><path fill="#666" d="M30-248c87 1 191-15 191 75 0 78-77 80-158 76V0H30v-248zm33 125c57 0 124 11 124-50 0-59-68-47-124-48v98" id="C"/><path fill="#666" d="M143 0L79-87 56-68V0H24v-261h32v163l83-92h37l-77 82L181 0h-38" id="D"/><g id="c"><use transform="matrix(0.04320987654320988,0,0,0.04320987654320988,0,0)" xlink:href="#C"/><use transform="matrix(0.04320987654320988,0,0,0.04320987654320988,10.370370370370372,0)" xlink:href="#D"/></g><path fill="#666" d="M33 0v-248h34V0H33" id="E"/><path fill="#666" d="M30-248c118-7 216 8 213 122C240-48 200 0 122 0H30v-248zM63-27c89 8 146-16 146-99s-60-101-146-95v194" id="F"/><g id="d"><use transform="matrix(0.04320987654320988,0,0,0.04320987654320988,0,0)" xlink:href="#E"/><use transform="matrix(0.04320987654320988,0,0,0.04320987654320988,4.320987654320988,0)" xlink:href="#F"/></g><path fill="#666" d="M190 0L58-211 59 0H30v-248h39L202-35l-2-213h31V0h-41" id="G"/><path fill="#666" d="M141-36C126-15 110 5 73 4 37 3 15-17 15-53c-1-64 63-63 125-63 3-35-9-54-41-54-24 1-41 7-42 31l-33-3c5-37 33-52 76-52 45 0 72 20 72 64v82c-1 20 7 32 28 27v20c-31 9-61-2-59-35zM48-53c0 20 12 33 32 33 41-3 63-29 60-74-43 2-92-5-92 41" id="H"/><path fill="#666" d="M210-169c-67 3-38 105-44 169h-31v-121c0-29-5-50-35-48C34-165 62-65 56 0H25l-1-190h30c1 10-1 24 2 32 10-44 99-50 107 0 11-21 27-35 58-36 85-2 47 119 55 194h-31v-121c0-29-5-49-35-48" id="I"/><g id="e"><use transform="matrix(0.04320987654320988,0,0,0.04320987654320988,0,0)" xlink:href="#G"/><use transform="matrix(0.04320987654320988,0,0,0.04320987654320988,11.19135802469136,0)" xlink:href="#H"/><use transform="matrix(0.04320987654320988,0,0,0.04320987654320988,19.833333333333336,0)" xlink:href="#I"/><use transform="matrix(0.04320987654320988,0,0,0.04320987654320988,32.75308641975309,0)" xlink:href="#A"/></g><path fill="#666" d="M117-194c89-4 53 116 60 194h-32v-121c0-31-8-49-39-48C34-167 62-67 57 0H25l-1-190h30c1 10-1 24 2 32 11-22 29-35 61-36" id="J"/><g id="f"><use transform="matrix(0.04320987654320988,0,0,0.04320987654320988,0,0)" xlink:href="#y"/><use transform="matrix(0.04320987654320988,0,0,0.04320987654320988,11.19135802469136,0)" xlink:href="#z"/><use transform="matrix(0.04320987654320988,0,0,0.04320987654320988,18.96913580246914,0)" xlink:href="#A"/><use transform="matrix(0.04320987654320988,0,0,0.04320987654320988,27.611111111111114,0)" xlink:href="#B"/><use transform="matrix(0.04320987654320988,0,0,0.04320987654320988,32.75308641975309,0)" xlink:href="#J"/><use transform="matrix(0.04320987654320988,0,0,0.04320987654320988,41.39506172839506,0)" xlink:href="#H"/><use transform="matrix(0.04320987654320988,0,0,0.04320987654320988,50.037037037037045,0)" xlink:href="#I"/><use transform="matrix(0.04320987654320988,0,0,0.04320987654320988,62.956790123456784,0)" xlink:href="#A"/></g><path fill="#666" d="M30 0v-248h187v28H63v79h144v27H63v87h162V0H30" id="K"/><path fill="#666" d="M24-231v-30h32v30H24zM24 0v-190h32V0H24" id="L"/><path fill="#666" d="M24 0v-261h32V0H24" id="M"/><g id="g"><use transform="matrix(0.04320987654320988,0,0,0.04320987654320988,0,0)" xlink:href="#K"/><use transform="matrix(0.04320987654320988,0,0,0.04320987654320988,10.370370370370372,0)" xlink:href="#I"/><use transform="matrix(0.04320987654320988,0,0,0.04320987654320988,23.290123456790127,0)" xlink:href="#H"/><use transform="matrix(0.04320987654320988,0,0,0.04320987654320988,31.9320987654321,0)" xlink:href="#L"/><use transform="matrix(0.04320987654320988,0,0,0.04320987654320988,35.345679012345684,0)" xlink:href="#M"/></g><path fill="#666" d="M100-194c62-1 85 37 85 99 1 63-27 99-86 99S16-35 15-95c0-66 28-99 85-99zM99-20c44 1 53-31 53-75 0-43-8-75-51-75s-53 32-53 75 10 74 51 75" id="N"/><path fill="#666" d="M101-234c-31-9-42 10-38 44h38v23H63V0H32v-167H5v-23h27c-7-52 17-82 69-68v24" id="O"/><g id="h"><use transform="matrix(0.04320987654320988,0,0,0.04320987654320988,0,0)" xlink:href="#C"/><use transform="matrix(0.04320987654320988,0,0,0.04320987654320988,10.370370370370372,0)" xlink:href="#B"/><use transform="matrix(0.04320987654320988,0,0,0.04320987654320988,15.512345679012347,0)" xlink:href="#N"/><use transform="matrix(0.04320987654320988,0,0,0.04320987654320988,24.154320987654323,0)" xlink:href="#O"/><use transform="matrix(0.04320987654320988,0,0,0.04320987654320988,28.47530864197531,0)" xlink:href="#L"/><use transform="matrix(0.04320987654320988,0,0,0.04320987654320988,31.888888888888893,0)" xlink:href="#M"/><use transform="matrix(0.04320987654320988,0,0,0.04320987654320988,35.302469135802475,0)" xlink:href="#A"/></g><path fill="#666" d="M177-190C167-65 218 103 67 71c-23-6-38-20-44-43l32-5c15 47 100 32 89-28v-30C133-14 115 1 83 1 29 1 15-40 15-95c0-56 16-97 71-98 29-1 48 16 59 35 1-10 0-23 2-32h30zM94-22c36 0 50-32 50-73 0-42-14-75-50-75-39 0-46 34-46 75s6 73 46 73" id="P"/><g id="i"><use transform="matrix(0.04320987654320988,0,0,0.04320987654320988,0,0)" xlink:href="#E"/><use transform="matrix(0.04320987654320988,0,0,0.04320987654320988,4.320987654320988,0)" xlink:href="#I"/><use transform="matrix(0.04320987654320988,0,0,0.04320987654320988,17.240740740740744,0)" xlink:href="#H"/><use transform="matrix(0.04320987654320988,0,0,0.04320987654320988,25.882716049382722,0)" xlink:href="#P"/><use transform="matrix(0.04320987654320988,0,0,0.04320987654320988,34.5246913580247,0)" xlink:href="#A"/></g><filter id="a" filterUnits="objectBoundingBox" x="-.05" y="-.02" width="1.1" height="1.1"><feOffset result="offOut" in="SourceAlpha" dy="6"/><feGaussianBlur result="blurOut" in="offOut" stdDeviation="5"/><feColorMatrix result="colorOut" in="blurOut" values="0 0 0 0 0 0 0 0 0 0 0 0 0 0 0 0 0 0 0.16862745098039217 0"/><feBlend in="SourceGraphic" in2="colorOut"/></filter><path fill="#666" d="M140-251c81 0 123 46 123 126C263-46 219 4 140 4 59 4 17-45 17-125s42-126 123-126zm0 227c63 0 89-41 89-101s-29-99-89-99c-61 0-89 39-89 99S79-25 140-24" id="Q"/><path fill="#666" d="M185-189c-5-48-123-54-124 2 14 75 158 14 163 119 3 78-121 87-175 55-17-10-28-26-33-46l33-7c5 56 141 63 141-1 0-78-155-14-162-118-5-82 145-84 179-34 5 7 8 16 11 25" id="R"/><path fill="#666" d="M127-220V0H93v-220H8v-28h204v28h-85" id="S"/><g id="k"><use transform="matrix(0.04320987654320988,0,0,0.04320987654320988,0,0)" xlink:href="#C"/><use transform="matrix(0.04320987654320988,0,0,0.04320987654320988,10.370370370370372,0)" xlink:href="#Q"/><use transform="matrix(0.04320987654320988,0,0,0.04320987654320988,22.46913580246914,0)" xlink:href="#R"/><use transform="matrix(0.04320987654320988,0,0,0.04320987654320988,32.83950617283951,0)" xlink:href="#S"/></g><path fill="#666" d="M194 0L95-120 63-95V0H30v-248h33v124l119-124h40L117-140 236 0h-42" id="T"/><g id="l"><use transform="matrix(0.04320987654320988,0,0,0.04320987654320988,0,0)" xlink:href="#C"/><use transform="matrix(0.04320987654320988,0,0,0.04320987654320988,10.370370370370372,0)" xlink:href="#T"/></g><path fill="#666" d="M63-220v92h138v28H63V0H30v-248h175v28H63" id="U"/><g id="m"><use transform="matrix(0.04320987654320988,0,0,0.04320987654320988,0,0)" xlink:href="#U"/><use transform="matrix(0.04320987654320988,0,0,0.04320987654320988,9.462962962962964,0)" xlink:href="#T"/></g><path fill="#666" d="M-5 72V49h209v23H-5" id="V"/><path fill="#666" d="M85-194c31 0 48 13 60 33l-1-100h32l1 261h-30c-2-10 0-23-3-31C134-8 116 4 85 4 32 4 16-35 15-94c0-66 23-100 70-100zm9 24c-40 0-46 34-46 75 0 40 6 74 45 74 42 0 51-32 51-76 0-42-9-74-50-73" id="W"/><g id="n"><use transform="matrix(0.04320987654320988,0,0,0.04320987654320988,0,0)" xlink:href="#y"/><use transform="matrix(0.04320987654320988,0,0,0.04320987654320988,11.19135802469136,0)" xlink:href="#z"/><use transform="matrix(0.04320987654320988,0,0,0.04320987654320988,18.96913580246914,0)" xlink:href="#A"/><use transform="matrix(0.04320987654320988,0,0,0.04320987654320988,27.611111111111114,0)" xlink:href="#B"/><use transform="matrix(0.04320987654320988,0,0,0.04320987654320988,32.75308641975309,0)" xlink:href="#V"/><use transform="matrix(0.04320987654320988,0,0,0.04320987654320988,41.39506172839506,0)" xlink:href="#E"/><use transform="matrix(0.04320987654320988,0,0,0.04320987654320988,45.71604938271605,0)" xlink:href="#W"/></g><path fill="#666" d="M141 0L90-78 38 0H4l68-98-65-92h35l48 74 47-74h35l-64 92 68 98h-35" id="X"/><path fill="#666" d="M59-47c-2 24 18 29 38 22v24C64 9 27 4 27-40v-127H5v-23h24l9-43h21v43h35v23H59v120" id="Y"/><g id="o"><use transform="matrix(0.04320987654320988,0,0,0.04320987654320988,0,0)" xlink:href="#S"/><use transform="matrix(0.04320987654320988,0,0,0.04320987654320988,7.734567901234567,0)" xlink:href="#A"/><use transform="matrix(0.04320987654320988,0,0,0.04320987654320988,16.376543209876544,0)" xlink:href="#X"/><use transform="matrix(0.04320987654320988,0,0,0.04320987654320988,24.154320987654323,0)" xlink:href="#Y"/></g><filter id="j" filterUnits="objectBoundingBox" x="-.05" y="-.03" width="1.1" height="1.15"><feOffset result="offOut" in="SourceAlpha" dy="6"/><feGaussianBlur result="blurOut" in="offOut" stdDeviation="5"/><feColorMatrix result="colorOut" in="blurOut" values="0 0 0 0 0 0 0 0 0 0 0 0 0 0 0 0 0 0 0.16862745098039217 0"/><feBlend in="SourceGraphic" in2="colorOut"/></filter><path fill="#666" d="M212-179c-10-28-35-45-73-45-59 0-87 40-87 99 0 60 29 101 89 101 43 0 62-24 78-52l27 14C228-24 195 4 139 4 59 4 22-46 18-125c-6-104 99-153 187-111 19 9 31 26 39 46" id="Z"/><path fill="#666" d="M240 0l2-218c-23 76-54 145-80 218h-23L58-218 59 0H30v-248h44l77 211c21-75 51-140 76-211h43V0h-30" id="aa"/><g id="q"><use transform="matrix(0.04320987654320988,0,0,0.04320987654320988,0,0)" xlink:href="#Z"/><use transform="matrix(0.04320987654320988,0,0,0.04320987654320988,11.19135802469136,0)" xlink:href="#Q"/><use transform="matrix(0.04320987654320988,0,0,0.04320987654320988,23.290123456790127,0)" xlink:href="#aa"/><use transform="matrix(0.04320987654320988,0,0,0.04320987654320988,36.20987654320988,0)" xlink:href="#aa"/><use transform="matrix(0.04320987654320988,0,0,0.04320987654320988,49.12962962962963,0)" xlink:href="#K"/><use transform="matrix(0.04320987654320988,0,0,0.04320987654320988,59.50000000000001,0)" xlink:href="#G"/><use transform="matrix(0.04320987654320988,0,0,0.04320987654320988,70.69135802469137,0)" xlink:href="#S"/></g><g id="r"><use transform="matrix(0.04320987654320988,0,0,0.04320987654320988,0,0)" xlink:href="#C"/><use transform="matrix(0.04320987654320988,0,0,0.04320987654320988,10.370370370370372,0)" xlink:href="#N"/><use transform="matrix(0.04320987654320988,0,0,0.04320987654320988,19.01234567901235,0)" xlink:href="#z"/><use transform="matrix(0.04320987654320988,0,0,0.04320987654320988,26.790123456790127,0)" xlink:href="#Y"/><use transform="matrix(0.04320987654320988,0,0,0.04320987654320988,31.111111111111114,0)" xlink:href="#V"/><use transform="matrix(0.04320987654320988,0,0,0.04320987654320988,39.75308641975309,0)" xlink:href="#E"/><use transform="matrix(0.04320987654320988,0,0,0.04320987654320988,44.074074074074076,0)" xlink:href="#W"/></g><filter id="p" filterUnits="objectBoundingBox" x="-.05" y="-.02" width="1.1" height="1.12"><feOffset result="offOut" in="SourceAlpha" dy="6"/><feGaussianBlur result="blurOut" in="offOut" stdDeviation="5"/><feColorMatrix result="colorOut" in="blurOut" values="0 0 0 0 0 0 0 0 0 0 0 0 0 0 0 0 0 0 0.16862745098039217 0"/><feBlend in="SourceGraphic" in2="colorOut"/></filter><path fill="#666" d="M30 0v-248h33v221h125V0H30" id="ab"/><g id="s"><use transform="matrix(0.04320987654320988,0,0,0.04320987654320988,0,0)" xlink:href="#ab"/><use transform="matrix(0.04320987654320988,0,0,0.04320987654320988,8.641975308641976,0)" xlink:href="#E"/><use transform="matrix(0.04320987654320988,0,0,0.04320987654320988,12.962962962962964,0)" xlink:href="#T"/><use transform="matrix(0.04320987654320988,0,0,0.04320987654320988,23.333333333333336,0)" xlink:href="#K"/><use transform="matrix(0.04320987654320988,0,0,0.04320987654320988,33.70370370370371,0)" xlink:href="#R"/></g><g id="t"><use transform="matrix(0.04320987654320988,0,0,0.04320987654320988,0,0)" xlink:href="#Z"/><use transform="matrix(0.04320987654320988,0,0,0.04320987654320988,11.19135802469136,0)" xlink:href="#N"/><use transform="matrix(0.04320987654320988,0,0,0.04320987654320988,19.833333333333336,0)" xlink:href="#I"/><use transform="matrix(0.04320987654320988,0,0,0.04320987654320988,32.75308641975309,0)" xlink:href="#I"/><use transform="matrix(0.04320987654320988,0,0,0.04320987654320988,45.67283950617284,0)" xlink:href="#A"/><use transform="matrix(0.04320987654320988,0,0,0.04320987654320988,54.314814814814824,0)" xlink:href="#J"/><use transform="matrix(0.04320987654320988,0,0,0.04320987654320988,62.956790123456784,0)" xlink:href="#Y"/><use transform="matrix(0.04320987654320988,0,0,0.04320987654320988,67.27777777777779,0)" xlink:href="#V"/><use transform="matrix(0.04320987654320988,0,0,0.04320987654320988,75.91975308641976,0)" xlink:href="#E"/><use transform="matrix(0.04320987654320988,0,0,0.04320987654320988,80.24074074074075,0)" xlink:href="#W"/></g><path fill="#666" d="M233-177c-1 41-23 64-60 70L243 0h-38l-65-103H63V0H30v-248c88 3 205-21 203 71zM63-129c60-2 137 13 137-47 0-61-80-42-137-45v92" id="ac"/><g id="u"><use transform="matrix(0.04320987654320988,0,0,0.04320987654320988,0,0)" xlink:href="#U"/><use transform="matrix(0.04320987654320988,0,0,0.04320987654320988,9.462962962962964,0)" xlink:href="#ac"/><use transform="matrix(0.04320987654320988,0,0,0.04320987654320988,20.654320987654323,0)" xlink:href="#E"/><use transform="matrix(0.04320987654320988,0,0,0.04320987654320988,24.97530864197531,0)" xlink:href="#K"/><use transform="matrix(0.04320987654320988,0,0,0.04320987654320988,35.345679012345684,0)" xlink:href="#G"/><use transform="matrix(0.04320987654320988,0,0,0.04320987654320988,46.537037037037045,0)" xlink:href="#F"/><use transform="matrix(0.04320987654320988,0,0,0.04320987654320988,57.72839506172841,0)" xlink:href="#R"/></g><g id="v"><use transform="matrix(0.04320987654320988,0,0,0.04320987654320988,0,0)" xlink:href="#R"/><use transform="matrix(0.04320987654320988,0,0,0.04320987654320988,10.370370370370372,0)" xlink:href="#A"/><use transform="matrix(0.04320987654320988,0,0,0.04320987654320988,19.01234567901235,0)" xlink:href="#J"/><use transform="matrix(0.04320987654320988,0,0,0.04320987654320988,27.654320987654323,0)" xlink:href="#W"/><use transform="matrix(0.04320987654320988,0,0,0.04320987654320988,36.2962962962963,0)" xlink:href="#A"/><use transform="matrix(0.04320987654320988,0,0,0.04320987654320988,44.93827160493828,0)" xlink:href="#B"/><use transform="matrix(0.04320987654320988,0,0,0.04320987654320988,50.08024691358024,0)" xlink:href="#V"/><use transform="matrix(0.04320987654320988,0,0,0.04320987654320988,58.72222222222222,0)" xlink:href="#E"/><use transform="matrix(0.04320987654320988,0,0,0.04320987654320988,63.04320987654321,0)" xlink:href="#W"/></g><path fill="#666" d="M96-169c-40 0-48 33-48 73s9 75 48 75c24 0 41-14 43-38l32 2c-6 37-31 61-74 61-59 0-76-41-82-99-10-93 101-131 147-64 4 7 5 14 7 22l-32 3c-4-21-16-35-41-35" id="ad"/><path fill="#666" d="M108 0H70L1-190h34L89-25l56-165h34" id="ae"/><g id="w"><use transform="matrix(0.04320987654320988,0,0,0.04320987654320988,0,0)" xlink:href="#ac"/><use transform="matrix(0.04320987654320988,0,0,0.04320987654320988,11.19135802469136,0)" xlink:href="#A"/><use transform="matrix(0.04320987654320988,0,0,0.04320987654320988,19.833333333333336,0)" xlink:href="#ad"/><use transform="matrix(0.04320987654320988,0,0,0.04320987654320988,27.611111111111114,0)" xlink:href="#A"/><use transform="matrix(0.04320987654320988,0,0,0.04320987654320988,36.25308641975309,0)" xlink:href="#L"/><use transform="matrix(0.04320987654320988,0,0,0.04320987654320988,39.66666666666667,0)" xlink:href="#ae"/><use transform="matrix(0.04320987654320988,0,0,0.04320987654320988,47.44444444444445,0)" xlink:href="#A"/><use transform="matrix(0.04320987654320988,0,0,0.04320987654320988,56.086419753086425,0)" xlink:href="#B"/><use transform="matrix(0.04320987654320988,0,0,0.04320987654320988,61.2283950617284,0)" xlink:href="#V"/><use transform="matrix(0.04320987654320988,0,0,0.04320987654320988,69.87037037037038,0)" xlink:href="#E"/><use transform="matrix(0.04320987654320988,0,0,0.04320987654320988,74.19135802469137,0)" xlink:href="#W"/></g><path fill="#666" d="M84 4C-5 8 30-112 23-190h32v120c0 31 7 50 39 49 72-2 45-101 50-169h31l1 190h-30c-1-10 1-25-2-33-11 22-28 36-60 37" id="af"/><g id="x"><use transform="matrix(0.04320987654320988,0,0,0.04320987654320988,0,0)" xlink:href="#R"/><use transform="matrix(0.04320987654320988,0,0,0.04320987654320988,10.370370370370372,0)" xlink:href="#Y"/><use transform="matrix(0.04320987654320988,0,0,0.04320987654320988,14.691358024691363,0)" xlink:href="#H"/><use transform="matrix(0.04320987654320988,0,0,0.04320987654320988,23.333333333333336,0)" xlink:href="#Y"/><use transform="matrix(0.04320987654320988,0,0,0.04320987654320988,27.654320987654323,0)" xlink:href="#af"/><use transform="matrix(0.04320987654320988,0,0,0.04320987654320988,36.2962962962963,0)" xlink:href="#z"/></g></defs></g></svg>